<?xml version="1.0" encoding="UTF-8" standalone="no"?>
<!-- Created with Inkscape (http://www.inkscape.org/) -->

<svg
   width="52.842049mm"
   height="72.8283mm"
   viewBox="0 0 52.842047 72.8283"
   version="1.1"
   id="svg1"
   xml:space="preserve"
   inkscape:version="1.4.2 (ebf0e940d0, 2025-05-08)"
   sodipodi:docname="talking_right.svg"
   xmlns:inkscape="http://www.inkscape.org/namespaces/inkscape"
   xmlns:sodipodi="http://sodipodi.sourceforge.net/DTD/sodipodi-0.dtd"
   xmlns="http://www.w3.org/2000/svg"
   xmlns:svg="http://www.w3.org/2000/svg"><sodipodi:namedview
     id="namedview1"
     pagecolor="#505050"
     bordercolor="#eeeeee"
     borderopacity="1"
     inkscape:showpageshadow="0"
     inkscape:pageopacity="0"
     inkscape:pagecheckerboard="0"
     inkscape:deskcolor="#505050"
     inkscape:document-units="mm"
     inkscape:zoom="1.2311588"
     inkscape:cx="22.33668"
     inkscape:cy="149.04657"
     inkscape:window-width="1503"
     inkscape:window-height="938"
     inkscape:window-x="0"
     inkscape:window-y="27"
     inkscape:window-maximized="1"
     inkscape:current-layer="layer7" /><defs
     id="defs1"><inkscape:path-effect
       effect="taper_stroke"
       start_shape="center | center | center | center | center | center | center | center | center | center | center | center | center"
       end_shape="center | center | center | center | center | center | center | center | center | center | center | center | center"
       id="path-effect43"
       is_visible="true"
       lpeversion="1"
       stroke_width="0.31"
       subpath="1"
       attach_start="0.2 | 0.2 | 0.2 | 0.2 | 0.2 | 0.2 | 0.2 | 0.2 | 0.2 | 0.2 | 0.2 | 0.2 | 0.2"
       end_offset="0.2 | 0.2 | 0.2 | 0.2 | 0.2 | 0.2 | 0.2 | 0.2 | 0.2 | 0.2 | 0.2 | 0.2 | 0.2"
       start_smoothing="0.5 | 0.5 | 0.5 | 0.5 | 0.5 | 0.5 | 0.5 | 0.5 | 0.5 | 0.5 | 0.5 | 0.5 | 0.5"
       end_smoothing="0.5 | 0.5 | 0.5 | 0.5 | 0.5 | 0.5 | 0.5 | 0.5 | 0.5 | 0.5 | 0.5 | 0.5 | 0.5"
       jointype="extrapolated"
       miter_limit="100" /><inkscape:path-effect
       effect="taper_stroke"
       start_shape="center | center | center | center | center | center | center | center | center | center | center | center | center | center | center | center | center | center | center | center | center | center | center | center | center | center | center | center | center | center | center | center | center | center | center | center | center | center | center"
       end_shape="center | center | center | center | center | center | center | center | center | center | center | center | center | center | center | center | center | center | center | center | center | center | center | center | center | center | center | center | center | center | center | center | center | center | center | center | center | center | center"
       id="path-effect42"
       is_visible="true"
       lpeversion="1"
       stroke_width="0.31"
       subpath="1"
       attach_start="0.2 | 0.2 | 0.2 | 0.2 | 0.2 | 0.2 | 0.2 | 0.2 | 0.2 | 0.2 | 0.2 | 0.2 | 0.2 | 0.2 | 0.2 | 0.2 | 0.2 | 0.2 | 0.2 | 0.2 | 0.2 | 0.2 | 0.2 | 0.2 | 0.2 | 0.2 | 0.2 | 0.2 | 0.2 | 0.2 | 0.2 | 0.2 | 0.2 | 0.2 | 0.2 | 0.2 | 0.2 | 0.2"
       end_offset="0.2 | 0.2 | 0.2 | 0.2 | 0.2 | 0.2 | 0.2 | 0.2 | 0.2 | 0.2 | 0.2 | 0.2 | 0.2 | 0.2 | 0.2 | 0.2 | 0.2 | 0.2 | 0.2 | 0.2 | 0.2 | 0.2 | 0.2 | 0.2 | 0.2 | 0.2 | 0.2 | 0.2 | 0.2 | 0.2 | 0.2 | 0.2 | 0.2 | 0.2 | 0.2 | 0.2 | 0.2 | 0.2"
       start_smoothing="0.5 | 0.5 | 0.5 | 0.5 | 0.5 | 0.5 | 0.5 | 0.5 | 0.5 | 0.5 | 0.5 | 0.5 | 0.5 | 0.5 | 0.5 | 0.5 | 0.5 | 0.5 | 0.5 | 0.5 | 0.5 | 0.5 | 0.5 | 0.5 | 0.5 | 0.5 | 0.5 | 0.5 | 0.5 | 0.5 | 0.5 | 0.5 | 0.5 | 0.5 | 0.5 | 0.5 | 0.5 | 0.5"
       end_smoothing="0.5 | 0.5 | 0.5 | 0.5 | 0.5 | 0.5 | 0.5 | 0.5 | 0.5 | 0.5 | 0.5 | 0.5 | 0.5 | 0.5 | 0.5 | 0.5 | 0.5 | 0.5 | 0.5 | 0.5 | 0.5 | 0.5 | 0.5 | 0.5 | 0.5 | 0.5 | 0.5 | 0.5 | 0.5 | 0.5 | 0.5 | 0.5 | 0.5 | 0.5 | 0.5 | 0.5 | 0.5 | 0.5"
       jointype="extrapolated"
       miter_limit="100" /><inkscape:path-effect
       effect="roughen"
       id="path-effect41"
       is_visible="true"
       lpeversion="1.2"
       global_randomize="1;570425343"
       displace_x="0.2;1"
       displace_y="0.2;1"
       method="size"
       max_segment_size="1.26983"
       segments="2"
       handles="along"
       shift_nodes="true"
       fixed_displacement="false"
       spray_tool_friendly="false" /><inkscape:path-effect
       effect="taper_stroke"
       start_shape="center | center | center | center | center | center | center | center | center | center | center | center | center | center | center | center | center | center | center | center | center | center | center | center | center | center | center | center | center | center | center | center | center | center | center | center | center | center | center"
       end_shape="center | center | center | center | center | center | center | center | center | center | center | center | center | center | center | center | center | center | center | center | center | center | center | center | center | center | center | center | center | center | center | center | center | center | center | center | center | center | center"
       id="path-effect40"
       is_visible="true"
       lpeversion="1"
       stroke_width="0.31"
       subpath="2"
       attach_start="0.2 | 0.2 | 0.2 | 0.2 | 0.2 | 0.2 | 0.2 | 0.2 | 0.2 | 0.2 | 0.2 | 0.2 | 0.2 | 0.2 | 0.2 | 0.2 | 0.2 | 0.2 | 0.2 | 0.2 | 0.2 | 0.2 | 0.2 | 0.2 | 0.2 | 0.2 | 0.2 | 0.2 | 0.2 | 20 | 0.2 | 0.2 | 0.2 | 0.2 | 0.2 | 0.2 | 0.2 | 0.2"
       end_offset="0.2 | 0.2 | 0.2 | 0.2 | 0.2 | 0.2 | 0.2 | 0.2 | 0.2 | 0.2 | 0.2 | 0.2 | 0.2 | 0.2 | 0.2 | 0.2 | 0.2 | 0.2 | 0.2 | 0.2 | 0.2 | 0.2 | 0.2 | 0.2 | 0.2 | 0.2 | 0.2 | 0.2 | 0.2 | 20 | 0.2 | 0.2 | 0.2 | 0.2 | 0.2 | 0.2 | 0.2 | 0.2"
       start_smoothing="0.5 | 0.5 | 0.5 | 0.5 | 0.5 | 0.5 | 0.5 | 0.5 | 0.5 | 0.5 | 0.5 | 0.5 | 0.5 | 0.5 | 0.5 | 0.5 | 0.5 | 0.5 | 0.5 | 0.5 | 0.5 | 0.5 | 0.5 | 0.5 | 0.5 | 0.5 | 0.5 | 0.5 | 0.5 | 0.5 | 0.5 | 0.5 | 0.5 | 0.5 | 0.5 | 0.5 | 0.5 | 0.5"
       end_smoothing="0.5 | 0.5 | 0.5 | 0.5 | 0.5 | 0.5 | 0.5 | 0.5 | 0.5 | 0.5 | 0.5 | 0.5 | 0.5 | 0.5 | 0.5 | 0.5 | 0.5 | 0.5 | 0.5 | 0.5 | 0.5 | 0.5 | 0.5 | 0.5 | 0.5 | 0.5 | 0.5 | 0.5 | 0.5 | 0.5 | 0.5 | 0.5 | 0.5 | 0.5 | 0.5 | 0.5 | 0.5 | 0.5"
       jointype="extrapolated"
       miter_limit="100" /><inkscape:path-effect
       effect="taper_stroke"
       start_shape="center | center | center | center | center | center | center | center | center | center | center | center | center | center | center | center | center | center | center | center | center | center | center | center | center | center | center | center | center | center | center | center | center | center | center | center | center | center | center"
       end_shape="center | center | center | center | center | center | center | center | center | center | center | center | center | center | center | center | center | center | center | center | center | center | center | center | center | center | center | center | center | center | center | center | center | center | center | center | center | center | center"
       id="path-effect39"
       is_visible="true"
       lpeversion="1"
       stroke_width="0.31"
       subpath="1"
       attach_start="0.5 | 0.2 | 0.2 | 0.2 | 0.2 | 0.2 | 0.2 | 0.2 | 0.2 | 0.2 | 0.2 | 0.2 | 0.2 | 0.2 | 0.2 | 0.2 | 0.2 | 0.2 | 0.2 | 0.2 | 0.2 | 0.2 | 0.2 | 0.2 | 0.2 | 0.2 | 0.2 | 0.2 | 0.2 | 0.2 | 0.2 | 0.2 | 0.2 | 0.2 | 0.2 | 0.2 | 0.2 | 0.2"
       end_offset="0.5 | 0.2 | 0.2 | 0.2 | 0.2 | 0.2 | 0.2 | 0.2 | 0.2 | 0.2 | 0.2 | 0.2 | 0.2 | 0.2 | 0.2 | 0.2 | 0.2 | 0.2 | 0.2 | 0.2 | 0.2 | 0.2 | 0.2 | 0.2 | 0.2 | 0.2 | 0.2 | 0.2 | 0.2 | 0.2 | 0.2 | 0.2 | 0.2 | 0.2 | 0.2 | 0.2 | 0.2 | 0.2"
       start_smoothing="0.5 | 0.5 | 0.5 | 0.5 | 0.5 | 0.5 | 0.5 | 0.5 | 0.5 | 0.5 | 0.5 | 0.5 | 0.5 | 0.5 | 0.5 | 0.5 | 0.5 | 0.5 | 0.5 | 0.5 | 0.5 | 0.5 | 0.5 | 0.5 | 0.5 | 0.5 | 0.5 | 0.5 | 0.5 | 0.5 | 0.5 | 0.5 | 0.5 | 0.5 | 0.5 | 0.5 | 0.5 | 0.5"
       end_smoothing="0.5 | 0.5 | 0.5 | 0.5 | 0.5 | 0.5 | 0.5 | 0.5 | 0.5 | 0.5 | 0.5 | 0.5 | 0.5 | 0.5 | 0.5 | 0.5 | 0.5 | 0.5 | 0.5 | 0.5 | 0.5 | 0.5 | 0.5 | 0.5 | 0.5 | 0.5 | 0.5 | 0.5 | 0.5 | 0.5 | 0.5 | 0.5 | 0.5 | 0.5 | 0.5 | 0.5 | 0.5 | 0.5"
       jointype="extrapolated"
       miter_limit="100" /></defs><g
     inkscape:groupmode="layer"
     id="layer7"
     inkscape:label="Stroke"
     transform="translate(-91.142753,-74.470642)"><path
       id="path39"
       style="display:inline;fill:#ffffff;fill-opacity:1;fill-rule:nonzero;stroke:none;stroke-width:0.31;stroke-linecap:round;stroke-opacity:1"
       d="m 136.66004,122.52025 c -0.14683,-0.49017 -0.62396,-0.91622 -0.62396,-0.91622 0,0 0.14102,0.49495 0.28122,0.93249 0.0905,0.2919 0.16188,0.61974 0.23876,1.00024 0.065,0.36735 0.14607,0.78784 0.20889,1.22612 0.0595,0.41566 0.11461,0.88197 0.15948,1.332 0.042,0.43711 0.12875,0.92188 0.15312,1.34006 0.0244,0.41816 -0.0366,0.7411 -0.0366,1.08927 0,0.3165 0.0783,0.68791 0.0987,1.03187 0.0873,0.37139 0.0334,0.67398 0.0537,1.00195 0.0211,0.34063 0.0689,0.67998 0.12187,0.99797 0.069,0.41391 0.13376,0.83919 0.18691,1.25727 0.0549,0.42531 0.118,0.86075 0.14766,1.27701 0.0299,0.4192 0.0213,0.76308 0.0213,1.18395 0,0.0985 -0.0786,0.32275 -0.0702,0.6196 0.008,0.29685 0.12549,0.73479 0.15354,1.09494 0.0259,0.33289 0.0594,0.67539 0.11274,0.9831 0.0533,0.3077 0.13924,0.58664 0.24723,0.78889 0.0544,0.10194 0.13668,0.19457 0.22663,0.25483 0.12513,0.0838 0.33394,0.25837 0.48077,0.18496 0.13773,-0.0689 0.1231,-0.43149 0.18937,-0.56572 0.12791,-0.25907 0.21171,-0.5094 0.2315,-0.82824 0.0204,-0.32912 0.004,-0.67897 0.0338,-0.85846 0.0646,-0.38738 0.1509,-0.79313 0.17539,-1.2153 0.0677,-0.41868 -0.003,-0.87725 -0.0201,-1.31222 -0.0454,-0.4466 -0.0784,-0.85894 -0.11646,-1.26973 -0.0387,-0.41757 -0.10089,-0.86469 -0.16462,-1.24707 -0.0438,-0.2626 -0.004,-0.49989 0.005,-0.78261 0.006,-0.20873 -0.0656,-0.50214 -0.0649,-0.72023 6.7e-4,-0.21809 0.0723,-0.37162 0.0284,-0.59109 -0.0567,-0.28331 -0.0628,-0.58711 -0.0556,-0.90736 0.007,-0.31525 -0.0414,-0.67979 -0.0874,-1.00172 -0.0397,-0.27759 -0.0525,-0.53746 -0.10224,-0.901 -0.022,-0.31135 -0.0935,-0.77837 -0.16728,-1.21958 -0.0498,-0.39275 -0.12113,-0.83042 -0.21841,-1.26527 -0.064,-0.40333 -0.17629,-0.81211 -0.30872,-1.22064 -0.13057,-0.40279 -0.31471,-0.89344 -0.46612,-1.22043 -0.27604,-0.60251 -0.75278,-0.84512 -0.75278,-0.84512 0,0 0.12877,0.44411 0.38028,0.98139 0.12455,0.269 0.2506,0.57934 0.36874,0.90581 0.11956,0.33068 0.3172,0.69923 0.41629,1.05057 0.0996,0.35302 0.0804,0.67902 0.14979,1.02981 0.0692,0.34995 0.18124,0.75212 0.23883,1.08556 0.1041,0.37657 0.0883,0.5989 0.12102,0.87169 0.0352,0.29282 0.067,0.57308 0.10161,0.8153 0.0414,0.28961 -0.05,0.4907 -0.0572,0.81365 -0.007,0.32043 0.0724,0.71467 0.13711,1.03837 0.0652,0.32602 0.0248,0.62983 0.0118,0.98626 -0.0128,0.35086 -0.0358,0.75053 0.0251,1.11579 0.0623,0.3737 0.0811,0.72379 0.12311,1.14216 0.008,0.37787 0.057,0.8097 0.0762,1.26488 -0.002,0.37035 0.0301,0.91481 0.0184,1.36352 -0.0111,0.42799 0.0359,0.9736 -0.0243,1.33517 -0.027,0.16185 -0.0211,0.35501 -0.0306,0.57435 -0.0102,0.23397 -0.22371,0.36311 -0.261,0.57615 -0.0298,0.17043 0.0153,0.34856 -0.0442,0.44478 -0.0396,0.0641 -0.0335,0.14197 -0.0822,0.16632 -0.0251,0.0126 -0.0821,-0.0207 -0.0946,-0.0201 -0.0126,6.2e-4 0.0296,0.0683 0.0171,0.0626 -0.0251,-0.0114 -0.10394,-0.10475 -0.14717,-0.17615 -0.0648,-0.1071 -0.11937,-0.18144 -0.17037,-0.3942 -0.051,-0.21276 -0.11646,-0.58331 -0.14796,-0.84414 -0.0525,-0.43472 -0.0966,-0.92286 -0.10891,-1.30795 -0.0124,-0.3851 0.0586,-0.61495 0.0586,-0.73653 0,-0.32123 -0.005,-0.64051 -0.0299,-0.96676 -0.0159,-0.32221 -0.0352,-0.63985 -0.078,-0.96868 -0.0177,-0.31189 -0.0527,-0.6579 -0.11126,-0.98721 -0.0573,-0.32251 -0.12798,-0.56623 -0.17927,-0.87397 -0.0508,-0.30493 -0.12669,-0.64187 -0.16537,-0.98505 -0.0685,-0.34622 -0.0565,-0.69291 -0.0707,-1.03657 -0.0143,-0.34537 -0.0867,-0.69947 -0.0867,-1.012 0,-0.35555 0.0395,-0.64999 0.0204,-1.06973 0.0288,-0.34469 -0.0298,-0.8727 -0.0767,-1.35972 -0.0191,-0.40481 -0.10393,-0.95386 -0.17251,-1.41166 -0.0658,-0.45292 -0.15592,-0.84859 -0.23529,-1.22648 -0.0824,-0.39226 -0.098,-0.65789 -0.19036,-0.95579 z m -5.74662,1.69957 c -0.18551,-0.38955 -0.55759,-0.63049 -0.55759,-0.63049 0,0 0.001,0.29256 0.16388,0.63317 0.1476,0.30968 0.28219,0.66189 0.3916,1.02371 0.11647,0.36698 0.22378,0.78495 0.29841,1.1558 0.0752,0.37337 0.0554,0.61704 0.10491,0.96345 0.0614,0.42991 0.13671,0.83468 0.22958,1.24418 0.0929,0.40951 0.22799,0.92558 0.22799,1.34324 0,0.37328 0.0252,0.65752 0.0802,0.98738 0.0438,0.26277 0.0731,0.50543 0.0959,0.78119 0.0228,0.27575 0.0355,0.58374 0.0336,0.86613 -0.002,0.28018 0.005,0.595 0.013,0.87919 0.008,0.28418 0.022,0.58569 0.0614,0.86103 0.0406,0.28429 0.0243,0.55707 0.013,0.86577 -0.0113,0.30871 -0.0646,0.61239 -0.0646,0.92294 0,0.34794 0.0874,0.75034 0.0842,1.12896 0.0877,0.40473 -0.0195,0.70508 -0.0271,1.08599 -0.0159,0.36142 -0.0555,0.76175 -0.0531,1.17093 -0.039,0.34738 0.0238,0.81469 0.0595,1.2146 0.0341,0.38213 0.0873,0.77089 0.14325,1.10691 0.006,0.0352 -0.009,0.0503 -0.0163,0.11841 -0.008,0.0681 -0.005,0.21648 -0.0195,0.29867 -0.0269,0.15412 -0.0705,0.3 -0.0446,0.46109 0.0139,0.0866 -0.0524,0.11033 0.0184,0.18108 0.0848,0.0848 0.27656,0.11396 0.35606,0.0756 0.0376,-0.0181 0.16079,0.0549 0.17866,0.0397 0.003,-0.003 -0.0705,-0.0284 -0.0676,-0.0309 0.003,-0.002 0.0243,-0.0221 0.0266,-0.0241 0.002,-0.002 0.0478,-0.0183 0.0496,-0.0198 0.002,-0.001 -0.0589,0.0129 -0.0576,0.0118 0.001,-9.4e-4 0.003,-0.0196 0.003,-0.0203 7.9e-4,-6.1e-4 0.005,0.0653 0.005,0.065 l 0.0993,-0.0625 c -0.10369,-0.008 -0.0195,0.052 -0.0192,0.0518 l -0.034,-0.0328 c -0.0481,-0.0285 -0.0473,0.006 -0.0923,0.006 0.34005,0 0.5239,-0.13115 0.63357,-0.34269 0.0871,-0.16798 0.11838,-0.42781 0.15443,-0.59454 0.0256,-0.11856 0.0215,-0.24463 0.0653,-0.33226 0.16215,-0.32431 0.30758,-0.66431 0.39189,-1.05557 0.11348,-0.37192 0.13824,-0.81773 0.16449,-1.25498 0.0289,-0.42427 0.001,-0.88817 -0.006,-1.32499 -0.0348,-0.44848 -0.0363,-0.86516 -0.0453,-1.26765 -0.009,-0.41018 -0.0105,-0.78917 -0.0105,-1.14588 0,-0.3907 -0.0206,-0.80913 -0.029,-1.19364 -0.0249,-0.40669 -0.0197,-0.74637 -0.0357,-1.11494 -0.0164,-0.38115 -0.0342,-0.74226 -0.0612,-1.12025 -0.0238,-0.36361 -0.0757,-0.78186 -0.11672,-1.16833 -0.0402,-0.3786 -0.0675,-0.70154 -0.12169,-1.08087 -0.0456,-0.3192 -0.0927,-0.62792 -0.17833,-0.9517 -0.0585,-0.3118 -0.18095,-0.65387 -0.2758,-0.97803 -0.0927,-0.31683 -0.18679,-0.63175 -0.2359,-0.92638 -0.0411,-0.24682 0.006,-0.55307 -0.0587,-0.92 0.0316,-0.34891 -0.15484,-0.77644 -0.27849,-1.17624 -0.11837,-0.38275 -0.2809,-0.7864 -0.41408,-1.08234 -0.14643,-0.33353 -0.47345,-0.44601 -0.47345,-0.44601 0,0 0.0761,0.33069 0.19441,0.58692 0.0945,0.21004 0.1823,0.47813 0.2599,0.74957 0.0776,0.27143 0.12809,0.52908 0.18601,0.814 0.0579,0.28492 0.0835,0.52751 0.13082,0.78988 0.0473,0.26236 0.0828,0.4936 0.11457,0.68431 0.0533,0.31962 0.15643,0.65578 0.24808,0.97732 0.11109,0.3324 0.1839,0.62775 0.2667,0.93828 0.0844,0.31656 0.13769,0.62713 0.18181,0.93596 0.0539,0.37717 0.0994,0.74881 0.14218,1.12453 0.0402,0.37265 0.12125,0.80825 0.15339,1.18605 0.0716,0.41621 3e-5,0.6778 0.0152,1.03435 -0.0359,0.34504 0.0692,0.83825 0.0874,1.23925 0.0173,0.3825 -0.0105,0.66904 -0.0105,1.05489 0,0.30843 0.0333,0.76607 0.0467,1.11281 0.0354,0.44931 0.0455,0.63452 0.0516,0.94472 0.007,0.35178 -0.0194,0.70212 -0.0248,1.07942 -0.005,0.355 0.005,0.71727 -0.0282,1.05477 -0.007,0.34828 -0.0916,0.64828 -0.17034,0.94723 -0.0791,0.30051 -0.17455,0.60581 -0.29992,0.85655 -0.0928,0.18569 -0.12514,0.39018 -0.16145,0.55981 -0.025,0.11673 -0.23239,0.0383 -0.27086,0.11248 -0.032,0.0618 0.11118,0.28248 0.0587,0.31356 -0.0525,0.0311 -0.17683,0.008 -0.29593,0.008 -0.098,0 -0.13433,0.15431 -0.14623,0.16334 -0.002,0.001 -0.001,0.0116 -0.003,0.0125 -0.001,7.9e-4 -0.0174,-0.035 -0.0179,-0.0346 -4.5e-4,2.8e-4 -0.0221,-0.0273 -0.022,-0.0274 1.8e-4,-9e-5 -0.0158,0.008 -0.015,0.008 7.2e-4,-3.1e-4 0.0367,0.002 0.038,0.002 l 0.0655,0.0629 c -0.0539,-0.0391 -0.0225,-0.0148 -0.0208,-0.0153 l -0.0259,-0.009 c 0.0261,-0.0246 0.11865,0.0721 0.14692,0.0926 0.003,0.002 -0.0865,-0.10942 -0.0856,-0.10844 -0.0118,-0.0119 -0.0149,-0.0188 -0.0219,-0.0624 -0.007,-0.0436 0.011,-0.0386 0.0183,-0.10962 0.0178,-0.17352 0.14319,-0.57389 0.10969,-0.77494 -0.0562,-0.33714 -0.0149,-0.57057 -0.0457,-0.93859 0.0494,-0.27833 -6.1e-4,-0.76424 -0.0218,-1.19796 0.0403,-0.33762 -0.0272,-0.79892 -0.0474,-1.21218 -0.005,-0.37729 0.0206,-0.70249 0.004,-1.08234 -0.0168,-0.38655 -0.11138,-0.86606 -0.11138,-1.20683 0,-0.28787 0.0825,-0.50751 0.0985,-0.83292 0.016,-0.3254 -0.0826,-0.77196 -0.12635,-1.07852 -0.0299,-0.20892 -0.0524,-0.45287 -0.0496,-0.66742 0.003,-0.21456 0.0482,-0.38751 0.0489,-0.61208 0.001,-0.33421 0.1344,-0.56746 0.12211,-0.91349 -0.0123,-0.34603 -0.19748,-0.83808 -0.25306,-1.17158 -0.06,-0.35998 -0.11431,-0.66103 -0.11431,-0.99237 0,-0.4389 -0.11702,-0.95752 -0.20009,-1.36368 -0.0831,-0.40617 -0.1325,-0.70166 -0.18998,-1.10402 -0.0486,-0.34008 -0.075,-0.69014 -0.13245,-1.0478 -0.0379,-0.35501 -0.10863,-0.70615 -0.2077,-1.0625 -0.0982,-0.35336 -0.26616,-0.73849 -0.42219,-1.06586 z m -8.8036,-0.91029 c -0.0236,-0.29887 -0.31102,-0.51068 -0.31102,-0.51068 0,0 -0.0919,0.27545 -0.0634,0.5221 0.0238,0.24269 0.0415,0.60055 0.0502,0.94602 0.01,0.38304 0.12448,0.7961 0.1178,1.16364 0.10843,0.47057 -0.0634,0.68569 -0.11383,1.01745 -0.054,0.35503 -0.0954,0.73008 -0.13834,1.03039 -0.0521,0.36459 -0.0548,0.75129 -0.0878,1.12636 -0.033,0.37507 -0.0715,0.81399 -0.10534,1.18304 -0.0341,0.37196 -0.0765,0.73787 -0.14408,1.07758 -0.0675,0.3397 -0.19683,0.63558 -0.30846,0.97046 -0.0675,0.20246 -0.16152,0.49847 -0.24733,0.93464 -0.0955,0.36739 -0.24556,0.88762 -0.30755,1.35533 -0.0585,0.44146 -0.026,0.91356 -0.026,1.11455 0,0.0423 0.009,0.23268 -0.0129,0.39711 -0.0281,0.2124 -0.0423,0.50599 -0.0917,0.81819 -0.0177,0.31938 -0.24115,0.55111 -0.29084,0.86605 -0.0498,0.31578 0.0502,0.71898 0.045,0.9467 -0.004,0.15711 -0.023,0.39008 0.0855,0.49858 0.11042,0.11042 0.19982,6.7e-4 0.28462,-0.0592 0.0597,-0.0422 0.1352,-0.0962 0.19088,-0.15912 0.0473,-0.0535 0.14868,-0.0627 0.19444,-0.12413 0.0897,-0.12035 0.35797,-0.52205 0.35797,-0.67766 0,-0.21319 0.007,-0.43867 0.0543,-0.6636 0.0476,-0.22492 0.14964,-0.4417 0.21796,-0.67682 0.0673,-0.23145 0.13935,-0.46986 0.19985,-0.71365 0.0605,-0.2438 0.12631,-0.46745 0.15617,-0.70639 0.0372,-0.29774 0.0827,-0.5571 0.10981,-0.8517 0.0271,-0.29461 0.0482,-0.60658 0.11092,-0.88909 0.0815,-0.3665 0.0708,-0.75896 0.12495,-1.12896 -0.0217,-0.38956 0.10093,-0.73818 0.14704,-1.10252 0.0459,-0.37463 0.10251,-0.71181 0.1493,-1.07559 0.0587,-0.3472 0.0819,-0.7468 0.13485,-1.11697 0.0518,-0.36193 0.12143,-0.71904 0.19155,-1.0696 0.0613,-0.30646 0.097,-0.60656 0.0969,-0.91863 -1.1e-4,-0.31208 -0.0852,-0.70576 -0.098,-1.00917 -0.0173,-0.40772 0.0409,-0.72262 0.0953,-1.10335 0.0243,-0.17051 0.0757,-0.51722 0.10761,-0.89457 0.032,-0.37736 0.0144,-0.81496 -0.0337,-1.1006 -0.0174,-0.17175 -0.24379,-0.24713 -0.24379,-0.24713 0,0 -0.0626,0.18681 -0.0254,0.33879 0.0323,0.19141 0.0212,0.45926 6.6e-4,0.74651 -0.0307,0.43088 -0.0942,0.91463 -0.12563,1.13485 -0.0367,0.25683 0.0825,0.52601 0.0834,0.77748 8.9e-4,0.25147 -0.10752,0.4938 -0.096,0.74752 0.0116,0.25572 0.0599,0.51555 0.0526,0.76052 -0.007,0.24496 -0.0618,0.4764 -0.10854,0.71023 -0.0727,0.36362 -0.1354,0.67792 -0.18537,1.04313 -0.0562,0.32852 0.0237,0.80998 -0.0165,1.19441 0.0807,0.40576 -0.17512,0.5805 -0.2309,0.93198 -0.15035,0.2504 -0.10295,0.80567 -0.15522,1.21747 -0.0475,0.37415 -0.0122,0.84735 -0.0884,1.1903 -0.0655,0.29488 -0.1219,0.59214 -0.17706,0.85982 -0.0552,0.26768 -0.0523,0.58175 -0.0879,0.86688 -0.0278,0.22266 -0.0912,0.43274 -0.1668,0.64612 -0.0756,0.21338 -0.16762,0.32751 -0.23671,0.56529 -0.0686,0.23591 0.0378,0.59628 -0.0106,0.86327 -0.0484,0.267 -0.26819,0.40616 -0.26819,0.64542 0,-0.0234 0.0342,0.0244 0.0322,0.0305 l -0.0228,-0.018 c 0.007,0.008 0.004,0.006 0.004,0.007 -3.2e-4,9.2e-4 0.0294,0.007 0.029,0.008 -4.4e-4,0.001 -0.0212,0.0128 -0.0218,0.0142 -6e-4,0.002 0.0902,-0.005 0.0895,-0.003 -0.0108,0.0269 -0.13981,0.0355 -0.17079,0.0905 -0.0516,0.0917 -0.12701,0.2373 -0.20448,0.3448 -0.10328,0.14333 -0.24249,0.24959 -0.30257,0.29199 -0.004,0.003 -0.0497,0.009 -0.0527,0.0114 -0.003,0.002 0.0495,-0.005 0.0475,-0.004 -0.002,9.9e-4 0.0538,0.0687 0.0527,0.0692 -9.7e-4,4.6e-4 -0.0434,-0.034 -0.0437,-0.0339 -2.3e-4,9e-5 0.0926,0.0776 0.0931,0.0775 3.9e-4,-1.3e-4 -0.0434,-0.0115 -0.0424,-0.0118 l -0.0714,-0.0879 c 0.0254,0.0227 0.022,-0.018 0.0235,-0.0183 l 0.11598,0.11122 c -0.0917,-0.0739 -0.0432,0.0285 -0.0135,0.0582 0.0119,0.0119 0.0349,-0.0494 0.0333,-0.0532 l 0.0497,0.01 c -0.0926,-0.0458 -0.10716,-0.066 -0.10739,-0.0666 -2.5e-4,-6.8e-4 0.0453,0.0205 0.045,0.0196 -3.4e-4,-0.001 -0.0298,-0.004 -0.0301,-0.006 -4.3e-4,-0.001 0.088,0.0601 0.0875,0.0584 -0.003,-0.0114 -0.0883,-0.0573 -0.0911,-0.0797 -0.007,-0.056 0.071,-0.17201 0.0733,-0.27293 0.007,-0.30277 -0.039,-0.82612 0.0234,-1.28979 0.0404,-0.29998 0.0895,-0.68442 0.14081,-1.01613 0.0513,-0.33172 0.1824,-0.6103 0.1824,-0.71477 0,-0.13 0.0227,-0.34012 0.0441,-0.63213 0.0213,-0.292 -0.0775,-0.74475 -0.0144,-1.08626 0.0631,-0.34151 0.14372,-0.68067 0.2395,-0.9545 0.0958,-0.27383 0.17408,-0.5698 0.22052,-0.70911 0.11599,-0.34798 0.20255,-0.70497 0.26924,-1.06773 0.0674,-0.36222 0.18045,-0.66465 0.21965,-1.03323 0.10656,-0.31222 0.0258,-0.80713 0.0436,-1.19873 0.0168,-0.37058 0.0613,-0.74743 0.11021,-1.08959 0.0421,-0.29496 -0.0514,-0.68676 -0.0263,-1.05543 -0.10262,-0.40581 0.0633,-0.68194 0.0899,-1.05253 0.0372,-0.33957 0.0484,-0.80096 0.0566,-1.16764 0.008,-0.34788 0.0677,-0.64114 0.0433,-0.88968 z m -5.69353,-0.18945 c 0.27324,-0.37711 0.49692,-0.88699 0.49692,-0.88699 0,0 -0.41575,0.24849 -0.72282,0.68632 -0.1803,0.253 -0.30333,0.65101 -0.48015,0.98612 -0.11148,0.41796 -0.32812,0.7116 -0.49173,1.07578 -0.16056,0.42394 -0.35353,0.7574 -0.5081,1.15899 -0.17822,0.4022 -0.19938,0.90168 -0.3244,1.33327 -0.12241,0.42257 -0.41376,0.75086 -0.49672,1.16562 -0.0829,0.4145 -0.1048,0.86673 -0.16096,1.29224 -0.016,0.44974 -0.12439,0.82519 -0.19487,1.23352 -0.0716,0.4151 -0.13416,0.84512 -0.23335,1.24188 -0.0671,0.2683 -0.0953,0.5493 -0.1145,0.82984 -0.0192,0.28054 -0.0306,0.55028 -0.0362,0.82333 -0.008,0.36984 -0.0156,0.77615 -0.0831,1.11394 -0.0677,0.33837 -0.0945,0.70789 -0.17222,1.0379 -0.0259,0.36135 -0.0542,0.72221 -0.13035,1.04054 0.0279,0.39968 -0.13318,0.64323 -0.21046,0.95039 -0.0811,0.32219 -0.19631,0.60148 -0.19631,0.96705 0,0.15278 -0.0722,0.35802 -0.11001,0.5586 -0.0367,0.19431 -0.0289,0.36093 -0.0193,0.56293 0.0137,0.28888 0.17917,0.6653 0.50571,0.82857 0.0917,0.0458 0.13644,0.0245 0.23071,0.006 0.33216,-0.0665 0.41253,-0.54524 0.50077,-0.93003 0.0956,-0.41695 0.1762,-0.90841 0.21113,-1.14916 0.009,-0.0611 0.11885,-0.0211 0.12405,-0.0419 0.10071,-0.40283 0.14934,-0.85624 0.2185,-1.26996 0.0344,-0.44761 0.15904,-0.76732 0.21319,-1.16912 0.0895,-0.38315 0.0415,-0.93785 0.0836,-1.36793 0.0407,-0.41538 0.22124,-0.66843 0.27148,-1.07034 0.0476,-0.38043 0.10332,-0.81027 0.16685,-1.19992 0.061,-0.42516 0.20469,-0.68843 0.27665,-1.06071 0.0746,-0.38585 0.0801,-0.83646 0.15756,-1.22358 0.0674,-0.33695 0.21791,-0.75568 0.34107,-1.12518 0.0792,-0.23747 0.12798,-0.52527 0.20382,-0.79903 0.0468,-0.29935 0.13017,-0.60271 0.21079,-0.88795 0.0824,-0.29161 0.20589,-0.52855 0.28175,-0.83529 0.0762,-0.30821 0.15672,-0.61904 0.24549,-0.90896 0.0885,-0.2949 0.16974,-0.56544 0.27856,-0.81168 0.10955,-0.2479 0.27855,-0.41724 0.41671,-0.60145 0.19526,-0.26035 0.37707,-0.53484 0.54847,-0.80431 0.1714,-0.26947 0.33142,-0.53439 0.54413,-0.7471 0.0281,-0.0281 0.13739,0.0199 0.18734,-0.0187 0.0656,-0.0508 0.0526,-0.23717 0.10848,-0.29175 0.0233,-0.0228 0.10776,0.0204 0.12733,-0.0285 0.0128,-0.0321 -0.0844,-0.23314 -0.10651,-0.28801 l -0.008,0.0135 c -0.0153,-0.0143 0.008,0.0416 -0.0146,0.067 l -0.0505,-0.0391 c -0.03,0.0391 -0.0597,0.0843 -0.0597,0.0843 0,0 -0.0481,0.0461 -0.0275,0.0951 l 0.0806,0.0196 c 0.0143,0.0346 0.0345,0.0687 0.0285,0.0801 l -0.12598,-0.096 c -0.037,-0.0833 0.0462,-0.10908 0.0441,-0.10641 l -0.0524,-0.0604 c 0.009,0.0536 0.0487,0.0734 0.0481,0.0741 -6.7e-4,7.8e-4 0.0719,0.14678 0.0708,0.14794 -0.001,0.001 -0.12866,-0.16975 -0.13031,-0.16807 -0.002,0.002 0.008,0.0215 0.006,0.0237 -0.003,0.002 -0.0953,-0.0447 -0.0985,-0.0419 -0.004,0.003 0.11415,0.0812 0.11004,0.0848 -0.005,0.004 -0.0212,-0.0215 -0.0264,-0.0172 -0.0681,0.0566 -0.25813,0.13431 -0.34355,0.21974 -0.22793,0.22792 -0.38171,0.51905 -0.56414,0.79227 -0.18242,0.27321 -0.36091,0.54192 -0.54311,0.78485 -0.15427,0.20568 -0.2837,0.47515 -0.40782,0.73634 -0.11364,0.28827 -0.17944,0.55461 -0.27874,0.8383 -0.10218,0.29195 -0.25048,0.54286 -0.32817,0.85703 -0.0772,0.31217 -0.0892,0.68243 -0.15799,0.99314 -0.009,0.35702 -0.15494,0.58332 -0.23657,0.84896 -0.0848,0.27607 -0.12537,0.54671 -0.20334,0.78061 -0.104,0.31202 -0.45271,0.60288 -0.52805,0.97926 -0.0745,0.37242 -0.14794,0.75668 -0.21788,1.14968 -0.0702,0.39103 -0.15545,0.74749 -0.21669,1.14643 -0.0611,0.39819 -0.0942,0.85255 -0.14257,1.23955 -0.0508,0.40665 -0.0877,0.91101 -0.13757,1.31656 -0.0356,0.47933 -0.095,0.75359 -0.14995,1.11984 -0.0594,0.40588 -0.18875,0.78011 -0.26722,1.18039 -0.0771,0.39352 -0.13428,0.76526 -0.2354,1.16977 -0.0186,0.0746 -0.002,0.27811 -0.0205,0.4187 -0.0316,0.24101 -0.018,0.62526 -0.0807,0.91512 -0.0348,0.16104 -0.13776,0.23651 -0.18554,0.36211 -0.0478,0.12559 -0.0872,0.26119 -0.13449,0.30937 -0.0295,0.0301 -0.10485,-0.0786 -0.12259,-0.075 -0.0177,0.004 -0.002,0.0868 -0.0427,0.0663 -0.11095,-0.0555 -0.1689,-0.0572 -0.211,-0.13078 -0.0421,-0.0735 -0.0516,-0.20773 -0.0566,-0.31302 -0.006,-0.12634 0.0116,-0.27049 0.039,-0.42587 0.0397,-0.22578 0.14444,-0.50362 0.14444,-0.73551 0,-0.34147 0.0222,-0.67008 0.059,-1.00078 0.0375,-0.32652 0.10762,-0.61835 0.16837,-0.94842 0.0801,-0.29112 0.12485,-0.68224 0.19262,-1.03266 0.0654,-0.33822 0.15768,-0.64987 0.22564,-0.98968 0.0459,-0.22927 0.0638,-0.49076 0.0713,-0.73378 0.007,-0.24302 0.014,-0.46494 0.0179,-0.69524 0.004,-0.23212 -0.0652,-0.51469 -0.0503,-0.73738 0.0148,-0.22268 0.17367,-0.34495 0.22483,-0.54959 0.10003,-0.40013 0.17976,-0.8128 0.24541,-1.23645 0.0696,-0.41962 0.12032,-0.85613 0.17876,-1.28323 0.0583,-0.42574 0.11887,-0.88528 0.19973,-1.28959 0.0675,-0.3377 0.28475,-0.59449 0.37574,-0.94063 0.23017,-0.26763 0.18239,-0.70608 0.26066,-1.0827 0.0744,-0.35778 0.16317,-0.72578 0.28476,-1.05295 0.12479,-0.33578 0.22154,-0.6697 0.35325,-0.97766 0.10058,-0.31712 0.20988,-0.63034 0.35607,-0.89198 0.14476,-0.25908 0.37076,-0.4387 0.51226,-0.63726 z m -1.49609,15.40195 c -0.2371,-0.0485 -0.49808,0.0653 -0.49808,0.0653 0,0 0.18521,0.19606 0.43984,0.24507 0.28159,0.0559 0.66488,0.12185 1.09898,0.17931 0.42941,0.0534 0.87101,0.0939 1.33581,0.10011 0.46293,0.006 0.9067,-0.0884 1.27287,-0.18878 0.27847,-0.0763 0.57732,-0.12178 0.75526,-0.29973 0.0531,-0.0531 0.10844,-0.10712 0.12916,-0.17389 0.0757,-0.24398 -0.0113,-0.65887 -0.053,-0.9898 -0.0286,-0.22731 -0.0982,-0.50125 -0.1007,-0.70719 -0.002,-0.20594 0.11516,-0.30156 0.17258,-0.41639 0.0964,-0.19278 0.27033,-0.48329 0.48395,-0.77338 0.21028,-0.28556 0.41266,-0.63024 0.50737,-0.94342 0.0481,-0.15892 0.0564,-0.32082 0.0163,-0.48154 -0.0637,-0.25465 -0.31054,-0.61527 -0.51714,-0.91355 -0.20659,-0.29829 -0.26067,-0.3763 -0.47014,-0.65476 -0.1487,-0.19768 -0.35362,-0.50745 -0.46361,-0.69073 -0.11,-0.18327 -0.22002,-0.36814 -0.25685,-0.51548 -0.0397,-0.15884 -0.0572,-0.33845 -0.0889,-0.5646 -0.0317,-0.22616 -0.12502,-0.54524 -0.15328,-0.78136 -0.0274,-0.22874 -0.11416,-0.597 -0.14766,-0.80534 -0.0335,-0.20834 0.0171,-0.24629 -0.0635,-0.40747 -0.13189,-0.26378 -0.25377,-0.54569 -0.37334,-0.84211 -0.11956,-0.29643 -0.26286,-0.63209 -0.35894,-0.92033 -0.0676,-0.20277 -0.16778,-0.44527 -0.20967,-0.65934 -0.0419,-0.21407 -0.0164,-0.39456 -0.0874,-0.60551 -0.058,-0.17264 -0.28711,-0.25737 -0.28711,-0.25737 0,0 -0.0719,0.2089 -0.0255,0.3463 0.064,0.19018 0.13836,0.42795 0.18916,0.64927 0.0508,0.22131 0.0838,0.43336 0.15823,0.65658 0.0963,0.28883 0.36116,0.71214 0.47428,1.01123 0.11311,0.29908 0.0868,0.47897 0.2245,0.75447 0.12678,0.25357 0.21624,0.70598 0.27189,1.17097 0.027,0.22523 0.028,0.44799 0.0503,0.67279 0.0223,0.22479 0.0968,0.48951 0.14057,0.66474 0.0584,0.2335 0.18447,0.45821 0.34271,0.70288 0.15824,0.24467 0.35927,0.5189 0.54566,0.75994 0.19318,0.24983 0.19811,0.36683 0.34984,0.5934 0.15172,0.22657 0.44499,0.59931 0.48563,0.76185 0.0285,0.11399 0.0668,0.21631 0.003,0.37717 -0.0637,0.16086 -0.17382,0.35236 -0.29611,0.53018 -0.22491,0.32703 -0.6341,0.68647 -0.77642,0.97112 -0.0744,0.14875 -0.093,0.34826 -0.10055,0.52579 -0.009,0.2053 0.002,0.44143 0.0284,0.6706 0.0264,0.22916 0.04,0.42425 0.053,0.59814 0.009,0.1222 0.0399,0.31179 0.0295,0.38946 -0.0104,0.0777 0.0294,0.075 0.0166,0.0879 -0.12479,0.1248 -0.40365,0.20118 -0.65157,0.26914 -0.24793,0.0679 -0.52455,0.11729 -0.84307,0.13016 -0.31852,0.0129 -0.50952,0.1229 -0.84381,0.0974 -0.21397,0.0937 -0.67673,-0.0985 -1.03418,-0.17929 -0.30215,-0.0683 -0.68196,-0.17154 -0.87496,-0.20986 z m -6.11672,-17.12544 c -0.0485,-0.11079 -0.33426,-0.13689 -0.33426,-0.13689 0,0 -0.0443,0.17132 -0.0217,0.22276 0.074,0.16875 0.16055,0.46318 0.59189,1.03829 0.31521,0.42028 0.50357,0.74044 0.64369,1.01638 0.14013,0.27594 0.32511,0.60132 0.39436,0.84472 0.0689,0.24216 0.0951,0.47778 0.12986,0.76586 0.0347,0.28808 0.0674,0.6283 0.18376,1.09355 0.0905,0.36187 0.20532,0.74683 0.30429,1.11859 0.11814,0.38172 0.12703,0.70824 0.23293,1.07268 0.0401,0.35811 0.25051,0.81469 0.38607,1.1902 0.13977,0.39749 0.24023,0.66272 0.37746,0.98144 0.14432,0.33521 0.35961,0.67676 0.51625,0.99004 -0.01,-0.0193 -0.0949,-0.0414 -0.0953,-0.0434 -0.004,-0.0179 -0.0172,-0.0628 -0.0169,-0.0595 l -0.0125,0.06 0.0752,0.0477 -0.0985,-0.11301 0.11712,0.10354 c -0.007,0.0642 0.0614,0.33772 0.0877,0.61501 0.0263,0.27728 -0.0137,0.54345 0.0239,0.78022 0.0186,0.11692 0.0955,0.30094 0.11893,0.37131 -0.002,-0.007 -0.006,0.11842 0.016,0.22253 0.0337,0.15617 0.0622,0.30709 0.10681,0.54668 0.0446,0.23959 0.23252,0.54411 0.25888,0.73814 0.0176,0.12934 -0.0948,0.22333 -0.0952,0.27213 -3e-5,0.003 0.002,-0.0249 0.002,-0.0226 -7e-5,0.002 -0.005,-0.002 -0.005,-5.8e-4 -7e-5,0.001 -0.005,-0.005 -0.005,-0.004 -8e-5,9.9e-4 0.006,0.0233 0.006,0.024 -6e-5,5.9e-4 -0.006,-0.0206 -0.006,-0.0203 -4e-5,2.5e-4 0.0246,0.0377 0.0246,0.0376 l -0.0203,-0.0245 c -0.003,-0.005 0.004,0.003 0.004,0.003 l 0.0181,0.0531 c -0.0242,-0.0646 -0.0612,-0.1209 -0.0212,-0.16088 -0.15422,0.15422 -0.32656,0.22157 -0.6021,0.20322 -0.19487,-0.013 -0.42965,0.0164 -0.67323,0.002 -0.24358,-0.014 -0.49196,-0.0127 -0.70136,0.092 -0.17954,0.0898 -0.32805,0.14531 -0.39883,0.29975 -0.0679,0.14808 -0.11518,0.3306 -0.16194,0.42412 -0.10288,0.20576 -0.0985,0.4519 -0.0609,0.64789 0.0708,0.36935 0.33998,0.65743 0.68964,0.91143 0.34967,0.25401 0.77312,0.46795 1.08274,0.57236 0.2558,0.091 0.57701,0.0425 0.57701,0.0425 0,0 -0.27344,-0.26719 -0.47169,-0.33042 -0.18437,-0.0622 -0.39801,-0.1499 -0.60968,-0.26498 -0.21167,-0.11509 -0.51207,-0.35386 -0.67828,-0.50582 -0.1662,-0.15197 -0.19769,-0.21558 -0.25463,-0.37803 -0.0569,-0.16245 -0.0666,-0.33178 0.0255,-0.5161 0.0603,-0.12055 0.2275,-0.28708 0.27982,-0.40124 0.0598,-0.13048 0.0172,-0.2591 0.10135,-0.30116 0.12207,-0.061 0.21439,-0.0873 0.38279,-0.0845 0.16841,0.003 0.44355,0.0783 0.63352,0.10044 0.37918,0.0441 0.78806,0.0548 1.0917,-0.24883 0.0593,-0.0593 0.0923,-0.13106 0.0926,-0.15917 7.4e-4,-0.0799 -0.0483,-0.22831 -0.0656,-0.35527 -0.0276,-0.20313 -0.21584,-0.7305 -0.27641,-1.04814 -0.0606,-0.31763 0.0145,-0.3871 -0.0108,-0.4631 -0.0127,-0.0381 -0.10703,-0.19902 -0.12727,-0.32635 -0.0304,-0.191 0.0262,-0.39403 -2.4e-4,-0.63227 -0.0396,-0.35735 -0.0745,-0.71047 -0.0819,-0.78164 -6e-5,-6.2e-4 -0.0206,-0.038 -0.035,-0.0668 -0.1506,-0.30121 -0.27484,-0.61229 -0.40874,-0.94548 -0.11785,-0.32803 -0.26463,-0.68997 -0.38694,-1.04993 -0.12119,-0.35649 -0.28432,-0.72592 -0.39321,-1.09197 -0.158,-0.37319 -0.0812,-0.71138 -0.16717,-1.07509 -0.0877,-0.37106 -0.33414,-0.7641 -0.42549,-1.12952 -0.11578,-0.4631 -0.17317,-0.82674 -0.22716,-1.13941 -0.0456,-0.31297 -0.0535,-0.52621 -0.12314,-0.78422 -0.0277,-0.21575 -0.18163,-0.53664 -0.36095,-0.8578 -0.16885,-0.30242 -0.39526,-0.50648 -0.70909,-0.92491 -0.40657,-0.54209 -0.3289,-0.82109 -0.4327,-1.05766 z m 1.96437,-7.0069 c 0.35201,-0.009 0.68246,-0.0652 0.94803,-0.10421 0.26557,-0.039 0.42888,-0.0945 0.42888,-0.0945 0,0 -0.12933,0.0143 -0.39484,-0.0222 -0.26552,-0.0365 -0.66671,-0.12193 -1.02398,-0.11291 -0.31438,0.008 -0.66828,0.0207 -1.04974,0.0391 -0.3814,0.019 -0.78391,0.0574 -1.20829,0.0904 -0.41924,0.0474 -0.74071,0.13059 -1.18572,0.18154 -0.34843,0.111 -0.91083,0.12981 -1.39211,0.20399 -0.39586,0.0827 -0.92436,0.13101 -1.3527,0.22346 -0.43338,0.0712 -0.86893,0.0932 -1.21467,0.21451 -0.36114,0.12667 -0.61266,0.30785 -0.88531,0.47251 -0.24519,0.14808 -0.45295,0.33658 -0.62237,0.53704 -0.16942,0.20046 -0.28381,0.41355 -0.35916,0.6396 -0.0759,0.22776 -0.12391,0.43507 -0.14511,0.66568 -0.0212,0.23061 -0.0935,0.45452 -0.0854,0.67834 0.008,0.22558 0.0429,0.47532 0.0636,0.7013 0.0206,0.22598 0.0498,0.43233 0.0151,0.64097 -0.0493,0.29587 -0.12704,0.6856 -0.20774,1.10506 -0.0761,0.42205 -0.1757,0.8563 -0.21993,1.28202 -0.0443,0.42655 0.0206,0.90302 0.0843,1.22134 0.0387,0.19369 0.001,0.36835 -0.004,0.60373 -0.005,0.22803 -0.15667,0.36495 -0.0987,0.59672 0.0586,0.2344 0.0908,0.50079 0.13975,0.80155 0.0261,0.29572 0.0412,0.59769 0.0776,0.94488 -0.0169,0.31311 0.0719,0.66496 0.0985,1.04316 0.0257,0.36586 -0.0141,0.72551 -0.0332,1.07726 -0.0194,0.35889 -0.0325,0.73974 -0.063,1.09609 -0.0187,0.37012 -0.069,0.66452 -0.1135,0.99146 -0.0476,0.30767 -0.0997,0.7207 -0.161,1.02175 -0.0591,0.29027 -0.13964,0.48855 -0.21373,0.71082 -0.0744,0.22315 -0.10313,0.4505 -0.108,0.66762 -0.005,0.22413 0.044,0.48491 -0.011,0.64966 -0.1194,0.35819 -0.23784,0.71189 -0.39324,0.99227 -0.155401,0.28037 -0.339352,0.49781 -0.538712,0.7165 -0.199361,0.21868 -0.383821,0.42884 -0.655404,0.59201 -0.271582,0.16317 -0.634429,0.23685 -0.996979,0.3577 -0.132383,0.0441 -0.323931,0.0523 -0.49221,0.0641 -0.163019,0.0114 -0.448142,-0.0529 -0.624731,0.006 -0.110726,0.0369 -0.07699,0.27011 -0.161594,0.32799 -0.09024,0.0617 -0.159823,0.18377 -0.21259,0.20136 -0.309566,0.10319 -0.725102,0.0828 -1.085526,0.26297 -0.317752,0.15887 -0.413733,0.42313 -0.377618,0.68736 0.03611,0.26423 0.165116,0.51706 0.37487,0.6569 0.222552,0.14836 0.580423,0.28505 0.926824,0.38149 0.390716,0.10793 0.701777,0.14966 1.089495,0.19736 0.409848,0.0391 0.933051,0.0789 1.351759,0.0867 0.489496,0.007 0.768847,0.003 1.099736,-0.0242 0.35869,-0.0299 0.62828,-0.16906 0.89415,-0.23553 0.0987,-0.0247 0.29585,0.0923 0.4116,0.12573 0.0747,0.0216 0.10267,0.0401 0.20899,0.0401 0.11738,0 0.44548,0.034 0.81856,0.0181 0.39023,0.025 0.80599,-0.0349 1.1749,-0.0812 0.37363,-0.0469 0.72583,-0.10372 0.85083,-0.16624 0.1983,-0.0991 0.541,0.0517 0.82858,0.15389 0.28197,0.10025 0.48776,0.16929 0.80467,0.0108 0.23242,-0.11621 0.36308,-0.47106 0.57419,-0.75699 0.21111,-0.28594 0.47921,-0.52236 0.53894,-0.76131 0.0688,-0.2751 0.0361,-0.68655 0.004,-1.02 -0.0208,-0.2134 -0.10138,-0.41713 -0.0969,-0.5659 0.003,-0.0992 0.0948,-0.14065 0.10754,-0.16608 0.0159,-0.0319 0.0262,-0.10354 0.1169,-0.1467 0.0851,-0.0405 0.23639,-0.0977 0.34875,-0.17029 0.25421,-0.16413 0.34085,-0.43984 0.19157,-1.03695 -0.0434,-0.17335 -0.0331,-0.32178 -0.10648,-0.45659 -0.0746,-0.13694 -0.0618,-0.21714 -0.10271,-0.33985 -0.10483,-0.31446 -0.22946,-0.79831 -0.24198,-1.26022 -0.0125,-0.46191 0.0172,-0.94602 0.1,-1.27712 0.0419,-0.16749 0.10762,-0.3821 0.201,-0.61205 0.0934,-0.22994 0.21518,-0.46406 0.30676,-0.7181 0.0894,-0.24809 0.11092,-0.52189 0.15167,-0.77816 0.0407,-0.25628 0.0741,-0.56592 0.002,-0.78376 -0.0971,-0.29118 -0.25002,-0.5405 -0.29889,-0.7654 -0.0489,-0.22491 0.10448,-0.29045 0.091,-0.51855 -0.0135,-0.2281 -0.007,-0.46678 -9.3e-4,-0.75116 0.006,-0.28439 0.0195,-0.59313 0.0965,-0.90126 0.0441,-0.1764 -0.0394,-0.46754 -0.0587,-0.61991 -0.0199,-0.15728 0.0786,-0.19372 0.10895,-0.28478 0.0741,-0.22224 0.21822,-0.37861 0.30189,-0.62792 0.0837,-0.2493 0.0447,-0.61149 0.10786,-0.8641 0.0374,-0.14981 0.13424,-0.84835 0.16253,-1.25981 0.0362,-0.52666 0.0676,-1.01368 0.0958,-1.19007 6.3e-4,-0.004 0.0393,0.0607 0.04,0.0572 5.3e-4,-0.003 0.0487,-0.0355 0.0492,-0.0382 4.5e-4,-0.002 -0.10783,-0.0385 -0.10741,-0.0406 3.8e-4,-0.002 0.0641,0.0466 0.0644,0.045 3e-4,-0.001 -0.14831,-0.0764 -0.14805,-0.0775 2.4e-4,-0.001 0.0318,-0.0507 0.032,-0.0515 l 0.0687,0.0593 c 0.0224,0.0357 0.0127,0.0109 0.0128,0.0105 l 0.0354,0.0265 c -0.0245,-0.006 -0.0164,-0.017 -0.0677,0.0344 0.002,-0.003 0.0398,0.005 0.0723,0.002 0.0325,-0.002 0.0714,0.0217 0.12851,0.0352 0.10272,0.0242 0.11502,0.0473 0.21448,0.0897 0.0497,0.0212 0.2356,0.059 0.27366,0.0717 0.26019,0.0867 0.57381,0.0714 0.96469,0.14222 0.39088,0.0709 0.85589,0.22605 1.16306,0.16461 0.19864,-0.0397 0.45519,-0.0993 0.71849,-0.11893 0.2633,-0.0196 0.51158,-0.002 0.71761,0.0392 0.36418,0.0728 0.67861,0.14589 1.09651,0.14589 0.0883,0 0.43199,0.0633 0.76438,0.0433 0.40069,0.0548 0.60974,-0.0907 0.9403,-0.1436 0.35245,-0.0564 0.74474,-0.0931 0.91725,-0.14433 0.0489,-0.0145 0.22027,0.10733 0.26895,0.0586 0.0435,-0.0435 -0.0749,-0.30456 -0.0779,-0.36108 -0.007,-0.13423 -0.1062,-0.09 -0.14045,-0.11854 l 0.0269,-0.01 c -0.12314,-0.0467 -0.18789,-0.001 -0.18789,-0.001 0,0 0.0624,0.11394 0.0786,0.16363 l -0.0312,0.0754 c -0.0815,-0.0762 -0.0735,-0.092 -0.0615,-0.0812 0.005,0.004 0.12254,0.0532 0.12698,0.0574 0.004,0.004 -0.0899,0.0118 -0.0864,0.0154 0.003,0.003 -0.008,-0.0178 -0.006,-0.0149 0.002,0.003 -0.005,-0.0688 -0.003,-0.0666 0.002,0.002 -0.10711,0.0214 -0.10607,0.0228 9.3e-4,0.001 0.11564,0.0339 0.11608,0.0345 l -0.009,0.009 c 0.0185,0.018 -0.0279,-7.6e-4 -0.028,-8e-4 l 0.0315,-0.0555 c 0.0148,0.0741 -0.011,0.005 0.039,-0.0449 0.0115,-0.0115 0.11161,0.10529 0.10791,0.10718 l -0.0996,-0.12848 c 0.002,0.0209 -0.0266,0.007 -0.0272,0.007 -6.2e-4,3e-4 -0.012,-0.13556 -0.0128,-0.13519 -8.8e-4,4e-4 0.0457,0.32022 0.0446,0.32069 -0.001,5.1e-4 0.003,-0.16198 0.001,-0.1614 -0.0143,0.006 -0.0569,0.003 -0.0887,0.0112 -0.0635,0.0167 -0.23409,-0.021 -0.34148,-0.004 -0.1432,0.0228 -0.22468,0.11254 -0.40975,0.13252 -0.34701,0.0374 -0.78794,0.033 -1.11502,0.0529 -0.32708,0.0199 -0.55969,0.0537 -0.62813,0.0537 -0.37925,0 -0.61512,-0.0623 -0.9908,-0.13744 -0.24619,-0.0492 -0.44601,-0.0134 -0.73425,0.007 -0.28824,0.0208 -0.65746,0.049 -0.86187,0.0899 -0.19604,0.0392 -0.548,-0.0436 -0.83761,-0.0835 -0.43441,-0.0599 -0.86979,-0.258 -1.17893,-0.36105 -0.0238,-0.008 -0.25678,-0.0197 -0.36086,-0.059 -0.1301,-0.0492 -0.20445,-0.0449 -0.35598,-0.0334 -0.0821,0.006 -0.15138,0.0903 -0.22061,0.15958 -0.0515,0.0515 -0.0731,0.0954 -0.0765,0.11693 -0.017,0.10615 0.0447,0.33221 0.0246,0.56332 -0.0201,0.23111 -0.12594,0.46579 -0.1429,0.7125 -0.0217,0.31579 -0.0388,0.63121 -0.0588,0.85065 -0.0133,0.1463 -0.0155,0.29076 -0.0205,0.31071 -0.0603,0.24118 -0.1451,0.52345 -0.24491,0.75029 -0.0998,0.22684 -0.22167,0.38426 -0.30517,0.63476 -0.0587,0.17612 -0.0101,0.3981 0.01,0.55358 0.0203,0.1605 0.0415,0.30379 0.0172,0.40126 -0.10702,0.4281 -0.20884,0.78002 -0.23378,1.11818 -0.0615,0.33012 0.009,0.66281 0.0747,0.99778 0.0645,0.32915 0.14292,0.65181 0.27532,1.04902 0.0516,0.15466 0.0778,0.40446 0.0421,0.62438 -0.0356,0.21993 -0.22677,0.39167 -0.3149,0.63614 -0.0829,0.22999 -0.10734,0.52135 -0.17467,0.76958 -0.0673,0.24823 -0.0557,0.4911 -0.10181,0.67557 -0.061,0.24398 -0.1153,0.45914 -0.14787,0.7703 -0.0369,0.24395 -0.002,0.73089 0.0155,1.07113 0.0164,0.31371 0.10932,0.6414 0.18492,0.8682 0.0523,0.15694 0.0424,0.27658 0.11256,0.40545 0.0725,0.13302 0.16456,0.25204 0.1973,0.3829 0.0613,0.24512 0.0451,0.41787 0.0119,0.51758 -0.0333,0.0997 -0.13039,0.084 -0.21245,0.137 -0.0821,0.053 -0.16301,0.12163 -0.27159,0.17327 -0.10518,0.05 -0.26933,0.0784 -0.33508,0.20989 -0.0469,0.0938 -0.0384,0.23998 -0.0418,0.35281 -0.007,0.22567 -0.0122,0.55713 0.0118,0.82275 0.0255,0.28332 0.0744,0.52135 0.0367,0.67251 -0.0452,0.18072 -0.19832,0.46907 -0.38883,0.71796 -0.1905,0.2489 -0.41515,0.49855 -0.58552,0.58373 -0.0887,0.0443 -0.17527,0.0895 -0.29397,0.0695 -0.1187,-0.02 -0.27309,-0.14477 -0.41794,-0.19627 -0.28743,-0.10219 -0.62093,-0.13591 -0.95353,0.0304 -0.0162,0.008 -0.15653,-0.15506 -0.27152,-0.1353 -0.1725,0.0297 -0.40158,0.16459 -0.66824,0.18613 -0.33332,0.0269 -0.68912,0.0654 -1.00288,0.0854 -0.31377,0.02 -0.65077,-0.0601 -0.79061,-0.0601 -0.0699,0 -0.10687,0.0482 -0.21152,0.0197 -0.10791,-0.0294 -0.31765,-0.12158 -0.47536,-0.0822 -0.19938,0.0498 -0.4253,0.10452 -0.689994,0.14451 -0.255167,0.0465 -0.622888,0.008 -0.937997,0.0221 -0.311531,0.0144 -0.601375,0.0428 -0.935816,0.0213 -0.252271,-0.0162 -0.560018,-0.0854 -0.796395,-0.10926 -0.236376,-0.0238 -0.391028,9e-5 -0.606988,-0.0488 -0.431921,-0.0977 -0.740549,-0.20702 -0.977056,-0.36469 -0.0596,-0.0397 -0.190574,-0.11345 -0.2433,-0.1949 -0.05272,-0.0814 -7.14e-4,-0.0867 -0.01764,-0.17629 -0.01692,-0.0896 -0.102525,-0.26513 -0.07411,-0.3331 0.02842,-0.068 0.07696,-0.13717 0.177356,-0.18736 0.159952,-0.08 0.24772,-0.2282 0.420118,-0.26606 0.169704,-0.0373 0.460013,0.0456 0.651156,-0.0181 0.110743,-0.0369 0.213062,-0.1295 0.297669,-0.18738 0.09025,-0.0617 0.2288,-0.10751 0.281558,-0.1251 0.132574,-0.0442 0.287791,-0.0137 0.456054,-0.0255 0.163004,-0.0114 0.372765,-0.0266 0.549196,-0.0854 0.384948,-0.12831 0.788968,-0.20607 1.071717,-0.39083 0.362679,-0.10914 0.449955,-0.42838 0.645489,-0.68854 0.125921,-0.27344 0.356114,-0.56644 0.514534,-0.88386 0.15519,-0.31094 0.30805,-0.62937 0.43062,-0.9971 0.0882,-0.26438 0.0623,-0.58976 0.0708,-0.84258 0.006,-0.17399 0.0872,-0.22664 0.13216,-0.36164 0.0893,-0.26777 0.23085,-0.49906 0.30193,-0.84171 0.13607,-0.28171 0.13788,-0.76038 0.18779,-1.18176 0.047,-0.39427 0.0543,-0.87317 0.0786,-1.29448 -0.005,-0.46636 0.009,-0.80806 0.0136,-1.20667 -0.0237,-0.42336 -0.006,-0.87129 -0.0199,-1.26848 -0.0222,-0.42637 -0.0668,-0.79363 -0.10239,-1.13244 -0.0367,-0.34985 -0.0632,-0.64906 -0.13497,-0.9361 -0.037,-0.14797 -0.0421,-0.31278 -0.0405,-0.49456 0.002,-0.26414 0.0393,-0.56145 -0.0171,-0.84341 -0.0335,-0.1674 -0.0173,-0.3487 -0.0162,-0.57327 0.001,-0.22458 0.005,-0.47399 0.035,-0.72376 0.0456,-0.37465 0.10349,-0.77511 0.16817,-1.14787 0.0647,-0.37276 0.16344,-0.71321 0.21106,-0.99895 0.0382,-0.22937 0.10582,-0.44296 0.0979,-0.6748 -0.008,-0.23183 -0.0263,-0.41545 -0.0342,-0.63359 -0.008,-0.2216 0.0161,-0.41133 0.0153,-0.63908 -8.4e-4,-0.22775 -0.0392,-0.49534 0.0272,-0.69471 0.095,-0.28488 0.31577,-0.56284 0.63056,-0.79607 0.23609,-0.17492 0.56109,-0.31445 0.89691,-0.45165 0.33582,-0.1372 0.58375,-0.35592 0.98861,-0.46652 0.33739,-0.0922 0.71285,-0.14254 1.08488,-0.21047 0.38476,-0.0386 0.69708,-0.16827 1.08107,-0.2175 0.34999,-0.095 0.94874,-0.008 1.3538,-0.0392 0.48927,0.0559 0.68594,-0.10356 1.00622,-0.1298 0.36987,-0.0795 0.68982,-0.10819 1.01991,-0.11843 0.32637,-0.0101 0.69936,0.073 0.98519,0.0658 z m 5.56171,-7.43628 c -0.0158,-0.51001 -0.22042,-0.90552 -0.22042,-0.90552 0,0 -0.23362,0.39107 -0.2198,0.84137 0.0122,0.39699 -0.0937,0.71031 -0.16507,1.09487 -0.14796,0.31302 -0.1806,0.77229 -0.31594,1.1634 -0.12982,0.37517 -0.27716,0.77562 -0.49562,1.10332 -0.0988,0.14827 -0.22604,0.3331 -0.37292,0.45377 -0.21689,0.17817 -0.45022,0.29534 -0.6536,0.60041 -0.14126,0.21189 -0.27101,0.44055 -0.36225,0.68362 -0.0913,0.24307 -0.14079,0.51274 -0.19491,0.76063 -0.0545,0.24985 -0.095,0.49568 -0.15846,0.72829 -0.0634,0.23262 -0.15918,0.43005 -0.25924,0.63016 -0.0339,0.0679 -0.0476,0.15615 -0.15179,0.21587 -0.0977,0.056 -0.29724,0.11828 -0.36957,0.26292 -0.0866,0.1733 -0.14089,0.34357 -0.23228,0.52638 -0.025,0.05 0.0163,0.15132 0.0143,0.19279 -0.005,0.11183 3.7e-4,0.40973 0.11516,0.52443 0.2581,0.2581 0.37892,0.53381 0.51848,0.85221 0.13739,0.31343 0.28514,0.70549 0.51164,1.04525 0.2381,0.35714 0.52915,0.72619 0.84951,0.9267 0.32037,0.20052 0.68338,0.23981 1.05031,0.35658 0.36549,0.11632 0.759,0.24144 1.12999,0.32761 0.37099,0.0862 0.71848,0.0846 1.06911,0.20144 0.34152,0.11384 0.80305,0.29896 1.16492,0.35927 0.0215,0.004 0.13869,0.0436 0.15499,0.0437 0.13038,6.9e-4 0.32944,-0.0458 0.58992,-0.0352 0.13024,0.005 0.23033,4.6e-4 0.3228,0.0155 0.0617,0.0101 0.19571,0.14756 0.21044,0.15451 0.001,4.8e-4 -0.0385,-0.0964 -0.0378,-0.0961 6e-4,3.2e-4 -0.0533,-0.0299 -0.053,-0.0297 2.7e-4,1.6e-4 -0.004,0.0126 -0.004,0.0126 2e-5,1e-5 0.0637,0.043 0.0636,0.0428 -1.8e-4,-1.2e-4 -0.013,-0.0356 -0.0134,-0.0358 -3.1e-4,-2.3e-4 -0.15408,-0.13859 -0.15453,-0.13895 l 0.17587,0.16926 c -0.0265,-0.0321 -0.0646,-0.0516 -0.0652,-0.0521 l 0.0486,0.0285 c -0.0155,-0.0133 -0.0389,-0.0464 -0.047,-0.0644 0.0307,-0.0523 0.0647,-0.11737 0.0154,0.007 -0.0284,0.0716 -0.0267,0.1637 -0.0267,0.1637 0,0 0.0655,0.0181 0.14832,0.0258 0.0742,0.007 0.15145,-0.19172 0.14842,-0.42909 -0.0507,-0.11352 -0.18511,-0.0605 -0.26336,-0.0774 -0.29749,-0.0645 -0.94503,-0.017 -1.16409,-0.0161 -0.007,3e-5 -0.0385,-0.0781 -0.0335,-0.0773 -0.33546,-0.0559 -0.71479,-0.0766 -1.05277,-0.18926 -0.36229,-0.12076 -0.72069,-0.18372 -1.10567,-0.27936 -0.38497,-0.0957 -0.80088,-0.23575 -1.14465,-0.34515 -0.34922,-0.11114 -0.66081,-0.22814 -0.95175,-0.41182 -0.29094,-0.18368 -0.55321,-0.40275 -0.76546,-0.72113 -0.20659,-0.30988 -0.37118,-0.78822 -0.51513,-1.11664 -0.14423,-0.32905 -0.40165,-0.63727 -0.7009,-0.93652 0.009,0.009 0.1406,0.11446 0.14054,0.11437 l 0.0495,0.0475 -0.15787,-0.1573 c 0.10254,0.106 0.032,0.045 0.0319,0.0448 -1.3e-4,-2.3e-4 0.066,0.039 0.0658,0.0387 -2e-4,-3.8e-4 0.0114,0.0249 0.0111,0.0244 -2.8e-4,-5.7e-4 0.0348,0.018 0.0344,0.0173 -0.003,-0.007 -0.0509,-0.0362 -0.0563,-0.0539 -0.0109,-0.0355 -0.1379,-0.18422 -0.14549,-0.2343 -0.008,-0.0501 0.0867,-0.0523 0.0867,-0.0909 3e-5,-0.0193 0.0645,0.0859 0.0659,0.0764 1.4e-4,-9.5e-4 -0.0428,-0.0563 -0.0427,-0.0572 1.2e-4,-7.2e-4 0.015,-0.007 0.0151,-0.008 10e-4,-0.005 -0.007,0.10593 -0.0119,0.11538 0.099,-0.19804 0.16997,-0.50206 0.23424,-0.63061 0.009,-0.0183 -0.0176,-0.10647 0.0162,-0.13145 0.0337,-0.025 0.12254,-0.0144 0.17697,-0.0457 0.10717,-0.0615 0.24768,-0.14871 0.32867,-0.31068 0.11182,-0.22364 0.28068,-0.31881 0.34588,-0.56856 0.0652,-0.24975 -0.0158,-0.68119 0.0373,-0.92439 0.0539,-0.24707 0.18685,-0.47839 0.27138,-0.69653 0.0845,-0.21814 0.1761,-0.42271 0.29795,-0.60549 0.11388,-0.17081 0.16798,-0.38433 0.31657,-0.50819 0.21939,-0.18288 0.54467,-0.26011 0.73013,-0.53828 0.2304,-0.3456 0.43648,-0.68807 0.60454,-1.06409 0.17144,-0.3595 0.25363,-0.84339 0.33995,-1.25404 0.0851,-0.40463 0.19592,-0.73375 0.1829,-1.15609 z m -7.41329,7.00139 c -0.0515,0.0864 -0.0452,0.22766 -0.0452,0.22766 0,0 0.16554,0.005 0.23351,-0.10959 0.16367,-0.27477 0.22959,-0.57476 0.32022,-0.84664 -0.001,0.003 0.0656,-0.006 0.0841,-0.0302 0.0184,-0.0246 0.0473,-0.0137 0.082,-0.0499 0.10404,-0.10882 0.26832,-0.29136 0.45431,-0.45133 0.15256,-0.13122 0.32742,-0.22863 0.49256,-0.37006 0.16514,-0.14144 0.31738,-0.33372 0.44865,-0.4711 0.12918,-0.1352 0.24695,-0.26932 0.31145,-0.39833 0.0829,-0.16588 0.17388,-0.43359 0.28659,-0.6947 0.11271,-0.2611 0.18919,-0.58489 0.31304,-0.84564 0.0826,-0.17384 0.17291,-0.3137 0.25117,-0.44767 0.0782,-0.13398 0.22442,-0.17538 0.28056,-0.23152 0.12196,-0.12196 0.28549,-0.27421 0.41958,-0.46104 0.1341,-0.18683 0.25093,-0.35505 0.32045,-0.56747 0.0604,-0.18161 -0.11504,-0.39318 -0.11504,-0.39318 0,0 -0.1923,0.10105 -0.22538,0.20435 -0.0548,0.16742 -0.16876,0.33107 -0.29345,0.49446 -0.12469,0.16338 -0.27092,0.35547 -0.39083,0.47539 -0.0881,0.0881 -0.0905,0.23931 -0.17298,0.38058 -0.162,0.27733 -0.37841,0.6657 -0.55165,1.03609 -0.17325,0.37039 -0.35459,0.68166 -0.44994,0.87236 -0.0399,0.0798 0.008,0.33028 -0.11495,0.45909 -0.1846,0.1932 -0.52385,0.32608 -0.76925,0.53681 -0.30675,0.26341 -0.69788,0.52568 -0.84922,0.71172 -0.0353,0.0434 -0.097,0.0517 -0.11543,0.10696 -0.0928,0.27849 -0.0626,0.62432 -0.20477,0.86294 z m 21.75215,2.51263 c -0.021,-0.13068 -0.11688,-0.40038 -0.11688,-0.40038 0,0 -0.26757,0.0427 -0.20491,0.22655 0.0707,0.26581 0.30677,0.70101 0.43131,0.94708 0.13524,0.26721 0.16402,0.41773 0.0966,0.4852 -0.16017,0.16018 -0.27833,0.17626 -0.32066,0.36352 l -0.0108,0.0107 c -0.001,-0.006 -0.002,0.003 0.002,0.0126 l 0.0452,0.10155 -0.0154,-0.0753 -0.0696,-0.0739 0.0239,0.0308 0.0558,0.0398 -0.0563,-0.0825 -0.0208,0.0373 c 0.0634,0.0908 0.20768,0.19146 0.20768,0.19146 0,0 0.0857,-0.10633 0.12194,-0.13942 l 0.0212,0.0127 -0.0732,-0.0449 0.0348,-0.0428 0.075,0.11988 -0.0576,-0.0618 0.002,0.0343 -0.0477,-0.1055 c 0.0511,0.0833 0.0651,0.0883 0.0672,0.0842 l -0.0125,0.002 c 7.6e-4,-9e-5 -0.0946,-0.0462 -0.0945,-0.0467 1.2e-4,-4.4e-4 0.15772,0.11443 0.15779,0.11421 5e-5,-1.9e-4 -0.0641,-0.0762 -0.0641,-0.0762 0,-1e-5 0.0389,0.0422 0.0389,0.0423 l -0.0335,-0.036 c -0.003,1.1e-4 0.0106,0.0672 0.0105,0.0674 l -0.0207,-0.084 c 0.006,0.0197 0.10555,0.043 0.10114,0.0482 -0.005,0.006 -0.16508,-0.0431 -0.15063,-0.0519 0.003,-0.002 0.13988,0.0633 0.14423,0.0607 0.0462,-0.0272 0.0499,-0.11434 0.16169,-0.22612 0.0963,-0.0963 0.13205,-0.13049 0.12646,-0.25252 -0.004,-0.0917 -0.0349,-0.33751 -0.0681,-0.42669 -0.0664,-0.17834 -0.15339,-0.30716 -0.24927,-0.48238 -0.099,-0.18087 -0.2038,-0.19426 -0.23812,-0.32326 z m -10.13249,-14.88398 c 0.0302,-0.0154 -0.12671,-0.12594 -0.12574,-0.17407 l 0.0203,0.0136 0.0264,-6.9e-4 0.0176,0.14222 -0.0292,-0.13469 0.0171,0.004 -0.003,-0.0192 9.8e-4,-0.005 c 0.003,-0.0212 -0.0776,-0.0856 -0.0776,-0.0856 0,0 0.0354,-0.001 -0.008,-0.0205 l -0.0479,-0.0337 0.034,-0.002 0.0797,0.0609 -0.0915,-0.041 0.0315,0.0365 0.0152,-0.0205 -0.0271,-0.006 c -0.0377,-0.0149 -0.0186,0.004 -0.046,0.024 -0.13128,0.0812 -0.41864,0.22513 -0.74994,0.37968 -0.33129,0.15454 -0.70872,0.31289 -1.01882,0.41626 -0.0647,0.0216 -0.0994,0.0825 -0.13776,0.12271 -0.0802,0.0841 -0.18151,0.22239 -0.23577,0.30142 -0.0429,0.0624 -0.0308,0.18519 -0.064,0.20732 -0.0364,0.0243 -0.18974,-0.0944 -0.26798,-0.0595 -0.0776,0.0347 -0.0969,0.17148 -0.16404,0.27219 -0.0571,0.0857 -0.2178,0.1735 -0.33355,0.29825 -0.16821,0.18127 -0.35638,0.44389 -0.49275,0.63836 -0.0568,0.081 -0.13476,0.0957 -0.16352,0.18193 -0.053,0.15896 -0.0684,0.40506 -0.1686,0.58712 -0.1002,0.18206 -0.29336,0.31174 -0.40882,0.42719 -0.0678,0.0678 -0.29636,0.16461 -0.47297,0.26497 -0.16557,0.0941 -0.28712,0.25152 -0.41482,0.37921 -0.19796,0.19796 -0.4209,0.40158 -0.67925,0.59606 -0.24957,0.20072 -0.54536,0.38828 -0.85053,0.57177 -0.30371,0.18262 -0.65476,0.34604 -0.98288,0.51378 -0.32891,0.16813 -0.69019,0.32202 -1.02548,0.46782 -0.35768,0.13915 -0.68553,0.26758 -1.00489,0.38359 -0.32651,0.1186 -0.65307,0.21025 -0.96749,0.28885 0.0363,-0.009 0.0983,0.0505 0.10041,0.0519 l -0.01,-0.0305 c 0.002,0.004 -0.0318,-0.0433 -0.0321,-0.0435 -2.8e-4,-2e-4 0.0811,0.0987 0.0803,0.0982 -8.1e-4,-6.4e-4 -0.0717,-0.0955 -0.073,-0.0966 -0.001,-0.001 0.0187,0.0397 0.0168,0.0379 -0.002,-0.002 -0.0211,-0.0281 -0.0237,-0.0307 -0.003,-0.003 0.0233,0.0194 0.0199,0.016 -0.004,-0.004 0.0469,0.0179 0.0425,0.0134 -0.0278,-0.0282 -0.13409,-0.0859 -0.19819,-0.11794 -0.35268,-0.17633 -0.88263,-0.17249 -1.26926,-0.10875 -0.19796,0.0326 -0.29562,0.11593 -0.47469,0.1283 -0.17908,0.0124 -0.34919,-5.4e-4 -0.4856,-0.046 0.004,0.001 -0.0133,0.0293 -0.0396,0.006 -0.0345,-0.0311 -0.1913,-0.1453 -0.25395,-0.18981 -0.0289,-0.0205 -0.007,-0.0771 -0.0523,-0.0885 -0.15531,-0.0388 -0.49034,-0.13314 -0.83637,-0.1579 -0.34604,-0.0248 -0.59296,0.0421 -0.91109,0.009 -0.28303,-0.0291 -0.56024,-0.073 -0.74579,-0.10705 -0.12369,-0.0227 -0.30487,-0.0557 -0.32854,-0.0675 -0.14659,-0.0733 -0.37622,-0.19806 -0.59474,-0.32679 -0.21852,-0.12872 -0.49089,-0.27611 -0.69259,-0.37696 -0.0483,-0.0241 -0.0641,-0.18041 -0.11169,-0.24654 -0.0475,-0.0661 -0.039,-0.0146 -0.0907,-0.10781 -0.10177,-0.18343 -0.22822,-0.39192 -0.4683,-0.51196 -0.29592,-0.14797 -0.69981,-0.24328 -1.00304,-0.24526 -0.30803,-0.002 -0.5542,0.0568 -0.78603,-0.0205 -0.0951,-0.0317 -0.33718,-0.18604 -0.4918,-0.29409 -0.231937,-0.16206 -0.413147,-0.31904 -0.537762,-0.44365 0.02545,0.0254 0.07064,0.0757 0.06705,0.0675 l -0.0083,-0.0351 c -0.02168,-0.004 -0.02556,-0.008 -0.02604,-0.009 -5.23e-4,-0.001 -0.02712,-0.0621 -0.02772,-0.0636 -6.64e-4,-0.002 -0.0027,0.0499 -0.0034,0.0479 -0.0074,-0.0194 0.01639,-0.009 0.0048,-0.0496 -0.02323,-0.0812 -0.121144,-0.29266 -0.152139,-0.43209 -0.04133,-0.18592 -0.0052,-0.3166 -0.05195,-0.56614 -0.03896,-0.20795 -0.125639,-0.4815 -0.167379,-0.71635 -0.04174,-0.23486 0.07188,-0.43054 0.03999,-0.65134 -0.06378,-0.44159 -0.283196,-0.91205 -0.297044,-1.18768 -0.0055,-0.11026 0.01324,-0.14223 0.01824,-0.19705 4.16e-4,-0.005 0.09279,-0.007 0.09186,-0.005 0.02878,-0.0576 0.01624,-0.17674 0.03263,-0.24946 0.0562,-0.24931 0.172338,-0.63377 0.204679,-0.76481 8.62e-4,-0.003 -0.06217,-0.0387 -0.06135,-0.0418 7.35e-4,-0.003 0.0087,0.0113 0.0094,0.009 6.17e-4,-0.002 -0.07807,-0.11444 -0.0775,-0.11631 5.06e-4,-0.002 0.03084,8.1e-4 0.03129,-5.9e-4 4.04e-4,-0.001 0.0088,0.0376 0.0091,0.0366 l 0.02216,0.0421 c 0.0036,0.003 0.0059,0.0325 0.0062,0.0318 l 0.0078,-0.0128 c -0.0076,-0.0235 -0.02705,-0.0697 -0.0549,-0.0418 -0.0281,0.0281 -0.029,0.0739 -0.04691,0.0734 l 0.02579,0.0247 c -0.01906,-0.0218 -0.149828,-0.14421 -0.150746,-0.14429 -0.001,-1e-4 0.129921,0.12327 0.129382,0.12318 -5.98e-4,-1e-4 0.03365,0.008 0.0336,0.008 -5.6e-5,-2e-5 -0.05319,-0.0257 -0.05264,-0.0255 6.11e-4,1.7e-4 -0.0013,-0.10766 3e-6,-0.10721 0.0014,5e-4 0.0057,0.11637 0.0078,0.11726 0.0023,9.8e-4 0.02692,0.0252 0.02992,0.0267 0.02399,0.0118 0.02531,-0.0164 0.07082,0.021 0.06827,0.0562 0.138382,0.12584 0.211029,0.20151 0.117293,0.12216 0.25655,0.2844 0.307851,0.3357 0.246043,0.24604 0.521962,0.44461 0.792292,0.59928 0.27034,0.15468 0.53365,0.22979 0.84304,0.3845 -0.008,-0.004 0.0877,0.0977 0.15162,0.13019 0.10131,0.0516 0.37084,0.18322 0.50254,0.0515 0.0345,-0.0345 0.0363,-0.10551 0.0446,-0.12781 0.042,-0.11353 0.10968,-0.35006 0.16318,-0.56329 0.0459,-0.18278 0.1085,-0.36617 0.16119,-0.51164 0.0351,-0.097 0.0589,-0.19988 0.0825,-0.23204 0.002,-0.003 -0.0168,-0.0345 -0.0149,-0.0367 0.002,-0.002 -0.0293,-0.006 -0.0281,-0.007 0.001,-0.001 0.0581,0.0168 0.0586,0.0164 3.8e-4,-3.4e-4 -0.0425,-0.0213 -0.0428,-0.0211 l 0.0406,0.0232 c -0.006,-0.004 -0.007,-0.006 -0.008,-0.005 l -0.036,-0.0279 c 0.0228,0.0395 0.0621,0.11159 0.0221,0.0917 -0.004,-0.002 -0.0698,-0.0817 -0.0714,-0.0829 -0.002,-0.001 -0.024,-0.039 -0.0235,-0.0385 -0.0136,-0.0136 0.0515,0.0805 0.0515,0.0806 l 0.0156,0.0527 c -0.0593,-0.0969 -0.065,-0.1017 -0.0649,-0.10155 7e-5,1.6e-4 0.007,0.006 0.007,0.006 1.6e-4,3.5e-4 0.0358,0.11595 0.036,0.11648 2.5e-4,6e-4 -0.0367,-0.11481 -0.0364,-0.114 3.4e-4,9e-4 -0.0925,-0.0399 -0.0921,-0.0387 0.004,0.0114 0.19869,0.11633 0.20513,0.14552 0.0129,0.0584 -0.0664,0.10602 -0.0518,0.20943 0.0298,0.21172 0.0572,0.49018 0.10787,0.8206 0.0447,0.31331 0.0804,0.69039 0.18072,1.0363 0.0984,0.33905 0.26976,0.76863 0.43733,1.00032 0.13254,0.18324 0.29449,0.22838 0.50238,0.29767 0.1742,0.0581 0.53863,0.0574 0.9795,0.028 0.43027,-0.0314 0.90818,-0.0971 1.34197,-0.16123 0.42976,-0.0635 0.85969,-0.10602 0.9986,-0.15232 0.0307,-0.0103 -0.0352,-0.14514 0.0579,-0.13184 0.0873,0.0125 0.33725,0.17861 0.45799,0.13835 0.30623,-0.10207 0.64379,-0.13785 0.96841,-0.1607 0.32462,-0.0229 0.63189,-0.0417 0.96638,-0.0542 0.3371,-0.0126 0.75948,0.0708 1.08258,-0.0263 0.3231,-0.0972 0.5352,-0.49165 0.81626,-0.77271 0.15608,-0.15608 0.33738,-0.33557 0.51283,-0.57098 0.18879,-0.20959 0.40097,-0.47815 0.57947,-0.75586 0.17543,-0.27294 0.38254,-0.58274 0.55061,-0.83518 0.17771,-0.2669 0.27708,-0.51493 0.44591,-0.709681 0.16882,-0.194749 0.34725,-0.287161 0.48155,-0.354311 0.0949,-0.04745 0.14789,-0.174809 0.19302,-0.23194 0.0481,-0.06094 0.0821,-0.119804 0.10745,-0.13672 0.41236,-0.27491 0.65109,-0.430411 0.8019,-0.616091 0.11102,-0.136679 0.18769,-0.260072 0.25101,-0.459524 0.0633,-0.199453 0.0796,-0.536294 0.19465,-0.881504 0.0367,-0.110069 0.11515,-0.119447 0.10446,-0.194241 -0.0114,-0.07978 -0.11684,-0.195651 -0.11038,-0.21502 0.0971,-0.291299 0.22368,-0.513241 0.31069,-0.799494 0.12641,-0.228457 0.15163,-0.617337 0.23089,-0.926167 0.0747,-0.291061 0.18014,-0.550644 0.27163,-0.825128 0.10662,-0.319862 0.26264,-0.53426 0.44169,-0.840545 0.17905,-0.306285 0.38067,-0.710096 0.59838,-1.004389 0.21601,-0.291994 0.36997,-0.63335 0.58096,-0.931671 0.21099,-0.298321 0.47818,-0.558249 0.63539,-0.872668 -0.002,0.0034 0.001,-0.03372 0.0186,-0.05099 0.0175,-0.01727 0.076,0.06118 0.10824,0.03688 0.0966,-0.07289 0.21854,-0.248559 0.37507,-0.3407 0.22828,-0.134373 0.55386,-0.301483 0.68705,-0.434673 0.19394,-0.193938 0.40613,-0.452869 0.654,-0.683835 0.24787,-0.230967 0.52938,-0.45499 0.82182,-0.601208 0.15714,-0.07857 0.37009,-0.09544 0.53683,-0.09834 0.06,-0.001 0.0801,-0.0091 0.12157,-0.0052 0.006,5.79e-4 0.004,-0.06764 0.01,-0.06701 0.005,5.69e-4 -0.0742,-0.0041 -0.0696,-0.0035 0.004,5.37e-4 0.15614,0.146194 0.15975,0.146739 0.003,4.9e-4 0.008,-0.03618 0.0107,-0.0357 l -0.0473,-0.04761 c 0.0306,0.03073 0.0354,0.03568 0.0376,0.03609 l 0.0647,0.04493 c -0.0576,-0.04761 -0.122,-0.06555 -0.16647,-0.127233 l 0.095,0.0686 c -0.17487,-0.219967 0.0599,-0.142923 0.0424,-0.140475 l 0.0514,-0.07621 c -0.0646,-0.04731 -0.0225,-2.42e-4 -0.0246,-1.7e-5 -0.002,2.49e-4 -0.0836,-0.05309 -0.0867,-0.05284 -0.003,2.87e-4 0.017,0.0066 0.0126,0.0069 -0.005,2.89e-4 -0.0142,-0.02059 -0.0201,-0.02036 -0.007,2.5e-4 -7.4e-4,0.0094 -0.009,0.0096 -0.009,1.6e-4 0.0189,0.0135 0.009,0.0135 l -0.83295,-0.02063 0.7423,0.320091 c 0.25541,0.105871 0.36371,0.197492 0.48991,0.333838 0.12619,0.136347 0.29157,0.355303 0.36327,0.529326 0.0701,0.170029 0.11265,0.358112 0.18726,0.561311 0.0746,0.203199 0.25921,0.463814 0.40763,0.686445 0.21263,0.318954 0.61583,0.684793 0.87847,0.894604 0.26264,0.209812 0.41576,0.285248 0.70116,0.468178 0.28764,0.184371 0.54366,0.34093 0.77698,0.547703 0.23331,0.206773 0.45191,0.472153 0.60296,0.774252 0.14715,0.294285 0.31818,0.704996 0.43877,1.016315 0.14886,0.391243 0.22864,0.566931 0.31664,0.84862 0.1233,0.327003 0.12698,0.621739 0.20675,0.956021 0.0782,0.327828 0.18093,0.688966 0.2623,1.040131 0.0784,0.338532 0.11308,0.602838 0.19227,0.943827 0.0406,0.28405 0.17395,0.723968 0.27013,1.093674 0.0872,0.330262 0.19102,0.736286 0.28695,1.066966 0.0969,0.33405 0.22245,0.62541 0.3251,0.93338 0.0653,0.19599 0.12173,0.43173 0.12603,0.65086 0.004,0.21913 -0.15561,0.32155 -0.16534,0.56314 -0.01,0.23782 0.0197,0.55392 0.0481,0.82493 0.0284,0.27101 0.0433,0.46215 0.0895,0.69332 0.0543,0.27167 0.13377,0.59352 0.18471,0.87764 0.0773,0.31779 0.0679,0.46059 0.111,0.72897 0.0455,0.28326 0.11541,0.64675 0.17241,0.93172 0.0437,0.21853 0.23309,0.47953 0.31998,0.64764 0.0598,0.11569 0.10095,0.20913 0.12115,0.31014 0.0472,0.23609 0.0786,0.46563 0.11591,0.69839 0.0373,0.23276 0.14153,0.52503 0.18839,0.75935 0.0369,0.18441 -0.0494,0.33732 -0.0738,0.57225 -0.024,0.23126 -0.0386,0.51136 0.0229,0.75741 0.0599,0.23955 0.0913,0.47265 0.12001,0.72454 0.0287,0.25188 0.0507,0.48637 0.0699,0.74965 0.0191,0.26122 0.0678,0.53759 0.095,0.81313 0.0272,0.27553 -0.0953,0.48329 -0.0434,0.74265 0.0644,0.32195 0.26732,0.82859 0.26153,1.17831 -0.006,0.34426 -0.13468,0.5739 -0.0206,0.91626 0.0262,0.0785 0.16662,0.2853 0.17637,0.40116 0.009,0.11225 -0.0411,0.19954 -0.0128,0.32197 0.0247,0.10997 0.14823,0.0599 0.14823,0.0599 0,0 0.19852,-0.0842 0.18637,-0.13477 -0.0211,-0.0914 -0.0744,-0.18717 -0.0845,-0.30708 -0.01,-0.11617 -0.0505,-0.31817 -0.0907,-0.43899 -0.0956,-0.28666 -0.0899,-0.60578 -0.0842,-0.95014 0.006,-0.33898 0.006,-0.73055 -0.0669,-1.09499 -0.0792,-0.39582 -0.0946,-0.75567 -0.12591,-1.17659 -0.0233,-0.31322 -0.11601,-0.69937 -0.15015,-1.01766 -0.0341,-0.31829 0.048,-0.50302 -0.0283,-0.80796 -0.0359,-0.1437 -0.10169,-0.44872 -0.0859,-0.62914 0.0229,-0.26217 0.0523,-0.53982 -0.006,-0.83102 -0.0475,-0.23745 -0.1239,-0.48217 -0.1674,-0.71698 -0.0435,-0.2348 0.0371,-0.3591 -0.01,-0.59205 -0.0436,-0.21806 -0.23434,-0.50822 -0.32123,-0.67641 -0.0598,-0.11574 -0.21734,-0.27384 -0.23765,-0.37533 -0.0548,-0.27391 -0.1425,-0.55286 -0.17868,-0.82673 -0.0829,-0.27749 -0.10911,-0.62687 -0.13346,-0.89834 -0.0246,-0.27458 0.001,-0.46395 -0.0542,-0.74078 -0.0412,-0.20588 -0.0528,-0.34389 -0.0535,-0.57677 -7.5e-4,-0.23287 0.0179,-0.40569 0.0278,-0.65012 0.01,-0.24252 -0.0826,-0.5582 -0.0992,-0.84168 -0.0166,-0.28348 0.0786,-0.50724 0.002,-0.73595 -0.11635,-0.34905 -0.19623,-0.60686 -0.29614,-0.97918 -0.0819,-0.298193 -0.19284,-0.772548 -0.29299,-1.198624 -0.0771,-0.352522 -0.18939,-0.814686 -0.28595,-1.228199 -0.0932,-0.395865 -0.18549,-0.78441 -0.28555,-1.176938 -0.10018,-0.391505 -0.18299,-0.718511 -0.2986,-1.103091 -0.0955,-0.329507 -0.25695,-0.818534 -0.40569,-1.211173 -0.14237,-0.375821 -0.2925,-0.721589 -0.45662,-1.049831 -0.13684,-0.273681 -0.35105,-0.508281 -0.55111,-0.708152 -0.23337,-0.201525 -0.37494,-0.335559 -0.59087,-0.489438 -0.22514,-0.16044 -0.49201,-0.337203 -0.72401,-0.488576 -0.22859,-0.149151 -0.44621,-0.275724 -0.6472,-0.448296 -0.20098,-0.172572 -0.39124,-0.420404 -0.54401,-0.649551 -0.1072,-0.160808 -0.20284,-0.307227 -0.2673,-0.466034 -0.13145,-0.323816 -0.19906,-0.644829 -0.35678,-0.936712 -0.15773,-0.291884 -0.39896,-0.554144 -0.87666,-0.752168 l -0.20084,0.269365 c 0.17301,0.02833 0.32615,0.04059 0.39525,-0.03663 0.085,-0.09503 0.0396,-0.186536 -0.0119,-0.222508 -0.0659,-0.04599 -0.16172,-0.0049 -0.21186,-0.0078 -0.20158,-0.01152 -0.56975,-0.02999 -0.84053,0.105393 -0.32767,0.163838 -0.63378,0.395339 -0.9024,0.631883 -0.26863,0.236544 -0.4921,0.479779 -0.67499,0.662665 -0.0474,0.04736 -0.27297,0.109352 -0.43056,0.203941 -0.2216,0.133017 -0.4687,0.272616 -0.64695,0.407106 -0.0693,0.0523 -0.10038,0.235399 -0.13986,0.31437 -0.14823,0.296443 -0.2724,0.600609 -0.48632,0.879372 -0.21391,0.278763 -0.53988,0.520613 -0.75968,0.817731 -0.21809,0.294797 -0.48486,0.592634 -0.67076,0.912378 -0.1859,0.319744 -0.28996,0.668456 -0.40513,1.013966 -0.0966,0.289747 -0.0972,0.610068 -0.17828,0.896921 0.003,0.31896 -0.20789,0.551269 -0.30946,0.828092 -0.1017,0.277203 -0.22761,0.537904 -0.3225,0.822548 -0.0367,0.110069 0.0329,0.255744 0.0435,0.330538 0.0114,0.07978 -0.09,0.116461 -0.0964,0.135831 -0.10153,0.30461 -0.12459,0.463681 -0.17511,0.63412 -0.0506,0.170773 0.0104,0.489915 -0.041,0.580873 -0.10279,0.181917 -0.29894,0.232419 -0.81829,0.578653 -0.0832,0.05548 -0.0101,0.210646 -0.0522,0.263883 -0.0449,0.05679 -0.22804,-0.01168 -0.24849,-0.0015 -0.19371,0.09685 -0.39169,0.250517 -0.57176,0.458233 -0.18007,0.207715 -0.36269,0.47097 -0.54417,0.75078 -0.18149,0.2798 -0.34287,0.58504 -0.51682,0.86397 -0.17671,0.28335 -0.43424,0.54106 -0.60403,0.77915 -0.16978,0.23809 -0.14513,0.50572 -0.28461,0.64521 -0.29057,0.29057 -0.55388,0.43722 -0.93103,0.50335 -0.37715,0.0661 -0.73745,0.22224 -1.13695,0.22693 -0.26425,0.003 -0.57997,-0.0394 -0.88986,-0.0583 -0.30989,-0.0188 -0.64175,-0.0264 -0.9151,0.0647 -0.0308,0.0102 -0.0681,0.0289 -0.16121,0.0156 -0.0873,-0.0125 -0.25053,-0.083 -0.37127,-0.0427 -0.0835,0.0278 -0.26261,0.12418 -0.52773,0.1689 -0.19885,0.0336 -0.41244,0.14437 -0.65482,0.17277 -0.24238,0.0284 -0.62968,-0.0651 -0.86779,-0.0442 -0.31748,0.0278 -0.53041,0.0442 -0.74818,0.0396 -0.14517,-0.003 -0.24737,0.0184 -0.28673,0.005 -0.16219,-0.0541 -0.22588,-0.13431 -0.35035,-0.34683 -0.0934,-0.15939 -0.14367,-0.32792 -0.22559,-0.55781 -0.0819,-0.22988 -0.0939,-0.43625 -0.13842,-0.66923 -0.0594,-0.31063 -0.11864,-0.58585 -0.17857,-0.87194 -0.0599,-0.28608 -0.13212,-0.58656 -0.16478,-0.73463 -0.0115,-0.052 0.003,-0.13208 -0.0535,-0.18815 -0.13666,-0.13665 -0.31414,-0.0828 -0.4092,0.0467 -0.0545,0.0742 -0.1102,0.1764 -0.14765,0.2798 -0.0774,0.2137 -0.18212,0.41105 -0.23677,0.63496 -0.0282,0.11556 -0.0907,0.28147 -0.11162,0.35647 -0.008,0.03 0.0764,0.13397 0.07,0.15247 -9.5e-4,0.003 0.0279,0.0457 0.027,0.0481 -7.8e-4,0.002 -0.038,-0.0767 -0.0387,-0.0748 l -0.13208,-0.0631 c 0.11714,0.0599 0.12027,0.0851 0.11969,0.0865 l -0.002,-0.0216 c -0.007,0.0111 -0.0522,0.004 -0.0217,-0.0263 0.0138,-0.0138 0.0363,-0.0101 0.0453,-0.0117 l 0.0196,0.0335 c -0.001,-0.0261 -3.9e-4,0.013 7e-5,0.013 5.1e-4,-7e-5 0.0838,0.0103 0.0841,0.0103 2.8e-4,-2e-5 -0.0755,-0.0485 -0.0755,-0.0485 -4e-5,0 0.0978,0.0203 0.0974,0.0203 -4.7e-4,-2e-5 -0.25084,-0.0297 -0.25175,-0.0298 -0.001,-1e-4 0.17846,0.0354 0.17696,0.0352 -0.015,-0.002 -0.0685,-0.007 -0.10685,-0.0261 -0.0307,-0.0156 -0.066,-0.0567 -0.0961,-0.0756 -0.0226,-0.0142 -0.089,-0.0673 -0.11276,-0.0791 -0.31595,-0.15798 -0.64131,-0.29637 -0.90135,-0.44291 -0.26003,-0.14654 -0.49809,-0.31821 -0.722256,-0.54237 -0.01426,-0.0143 -0.391263,-0.49145 -0.632999,-0.61018 -0.07829,-0.0385 -0.178362,-0.009 -0.274288,0.0867 -0.05431,0.0543 -0.130332,0.0677 -0.138773,0.10695 -0.0302,0.14054 -0.03669,0.45416 -0.06914,0.6361 -0.02472,0.13862 -0.06573,0.26321 -0.08031,0.29237 -0.06199,0.12398 -0.09414,0.34833 -0.07902,0.54384 0.01704,0.22036 0.02744,0.53205 0.06642,0.81986 0.04403,0.32506 0.0918,0.69006 0.1644,1.05376 0.05514,0.35947 0.09555,0.63445 0.172193,0.9315 0.07576,0.29363 0.219299,0.64231 0.260758,0.75898 0.0097,0.0274 0.01476,0.0591 0.05342,0.0978 0.110332,0.11033 0.318398,0.31395 0.528115,0.47132 0.209713,0.15736 0.321993,0.22134 0.498693,0.28025 0.29497,0.0983 0.72364,0.12878 1.01527,0.13068 0.30103,0.002 0.58417,-0.0766 0.80605,0.0344 0.14199,0.071 0.24249,0.31808 0.34328,0.49976 0.0961,0.17316 0.20744,0.4022 0.41765,0.50731 0.19425,0.0971 0.50223,0.25439 0.71635,0.38154 0.21412,0.12714 0.28694,0.22047 0.4558,0.30489 0.0959,0.0479 0.32831,0.0978 0.48978,0.1235 0.21797,0.0347 0.49127,0.0175 0.78264,0.0437 0.29137,0.0262 0.55811,0.0795 0.82979,0.10564 0.36801,0.0353 0.74726,0.0938 0.87906,0.12676 -0.007,-0.002 -0.0209,-0.008 -0.0106,-1.9e-4 0.0155,0.011 0.083,0.0386 0.11296,0.068 0.0421,0.0413 0.0859,0.12645 0.17809,0.15718 0.22004,0.0733 0.47768,0.0864 0.72526,0.0592 0.24758,-0.0271 0.4808,-0.10298 0.69567,-0.13239 0.30057,-0.0412 0.59722,0.0769 0.78833,0.17248 0.01,0.005 0.0305,-0.0355 0.0726,0.006 0.0428,0.042 0.10817,0.0631 0.2315,0.0322 0.31811,-0.0795 0.62242,-0.18391 0.96302,-0.29983 0.31816,-0.12336 0.72011,-0.2329 1.07558,-0.38235 0.3619,-0.12439 0.7348,-0.23152 1.06901,-0.40223 0.38326,-0.099 0.66846,-0.35268 0.97165,-0.55472 0.31231,-0.19107 0.62321,-0.38113 0.88116,-0.59796 0.25716,-0.21617 0.46297,-0.36819 0.67054,-0.57576 0.0863,-0.0863 0.25064,-0.28455 0.42602,-0.38422 0.16443,-0.0934 0.31474,-0.33947 0.43219,-0.45692 0.14286,-0.14286 0.30125,-0.29066 0.42314,-0.45975 0.12189,-0.1691 0.20448,-0.35958 0.26238,-0.53328 0.0182,-0.0547 0.0511,-0.14377 0.11995,-0.23448 0.0689,-0.0907 0.15438,-0.2391 0.24689,-0.33955 0.17346,-0.18834 0.36514,-0.40896 0.47965,-0.58071 0.0179,-0.0268 0.14409,0.0218 0.20426,-0.005 0.0527,-0.0235 0.12853,-0.0662 0.20213,-0.11533 0.13099,-0.0873 0.22918,-0.22792 0.29347,-0.3299 0.0343,-0.0544 0.0928,-0.10691 0.1189,-0.1381 0.0261,-0.0312 -0.0174,-0.0866 -0.0185,-0.0863 0.3315,-0.1105 0.73379,-0.22826 1.05932,-0.38882 0.32554,-0.16056 0.68955,-0.33161 0.8273,-0.41681 z m -2.25602,-13.040453 c 0.0852,0.02603 0.19327,0.01176 0.2649,-0.04102 0.0702,-0.05174 0.0616,-0.135735 0.0616,-0.135735 0,0 -0.11853,-0.002 -0.27698,-0.01558 -0.24656,-0.04848 -0.64605,-0.336775 -1.01767,-0.547938 -0.37163,-0.211164 -0.71929,-0.428125 -0.93582,-0.64465 -0.18662,-0.186621 -0.46861,-0.06849 -0.61689,0.04367 -0.0585,0.04426 -0.0802,0.106575 -0.1227,0.14068 -0.007,0.0053 -0.026,0.018 -0.032,0.02271 -0.005,0.0042 0.01,0.02463 0.005,0.02831 -0.004,0.0033 -0.0441,-0.116262 -0.048,-0.113461 -0.003,0.0025 -0.0249,0.07423 -0.0278,0.07627 -0.003,0.0018 0.009,0.0096 0.007,0.01099 l 0.009,0.02274 c -0.007,-0.0071 0.0802,0.03081 0.0789,0.03167 l -0.11842,-0.06001 c 0.0167,0.03093 -0.0174,-0.104261 0.0726,-0.01421 0.0341,0.03411 0.19042,0.202295 0.1909,0.193373 l -0.0733,-0.07056 c 0.004,5.65e-4 0.044,0.155169 0.0441,0.15366 1.6e-4,-0.0017 -0.13553,-0.194283 -0.13522,-0.196529 3.5e-4,-0.0025 0.15343,0.114421 0.154,0.1113 6.2e-4,-0.0035 -0.0507,-0.09008 -0.0498,-0.09423 0.001,-0.0046 0.0944,0.05447 0.0958,0.04912 0.0272,-0.107062 -0.022,-0.488092 0.093,-0.742493 0.11406,-0.252414 0.33838,-0.450431 0.42649,-0.734197 0.0546,-0.175957 0.0816,-0.232436 0.0893,-0.398491 0.01,-0.212511 -0.028,-0.552795 -0.17968,-0.704431 -0.1385,-0.138506 -0.52772,-0.282739 -0.8188,-0.296109 -0.29109,-0.01337 -0.45168,0.159825 -0.56725,0.390965 -0.0126,0.02531 -0.07,-0.0024 -0.0734,0.01307 -0.018,0.08237 0.0105,0.231181 -0.009,0.310103 -0.002,0.0066 -0.007,0.0038 -0.009,0.0097 -0.002,0.0053 -0.045,-0.02579 -0.0464,-0.02125 -0.001,0.0041 0.0621,0.04352 0.0609,0.0469 -0.001,0.003 -0.0992,-0.153528 -0.10023,-0.151162 -8.9e-4,0.0021 0.007,0.0849 0.006,0.0864 -6.4e-4,0.0013 0.0369,0.04806 0.0365,0.04883 l 0.0135,0.03819 c -0.006,-0.0302 -0.0216,-0.05324 -0.0217,-0.05307 l 0.009,0.02082 c 0.006,0.0042 -0.015,-0.08801 0.039,-0.08801 0.1989,0 0.17363,0.228484 0.17599,0.221258 l 0.14596,0.06128 c -0.1215,-0.05512 -0.0466,-0.02525 -0.0461,-0.02666 5.4e-4,-0.0016 0.0149,0.02873 0.0156,0.02682 7.6e-4,-0.0021 -0.0819,-0.06696 -0.081,-0.06942 0.001,-0.0027 -1.3e-4,0.01548 0.001,0.01241 0.001,-0.0034 0.0802,0.01269 0.0817,0.009 0.002,-0.0041 -0.0796,-0.05675 -0.0778,-0.0612 0.002,-0.0049 0.10535,0.09436 0.10744,0.08916 0.007,-0.01857 -0.0776,-0.292854 -0.0776,-0.351662 0,-0.270105 -0.0546,-0.590448 -0.15744,-0.796166 -0.1599,-0.319779 -0.42435,-0.658017 -0.61565,-0.842743 -0.1913,-0.184726 -0.32389,-0.220725 -0.50924,-0.374089 -0.13263,-0.109923 -0.36602,-0.121886 -0.36602,-0.121886 0,0 -0.0332,0.167585 0.11708,0.291756 0.19223,0.159054 0.49346,0.323739 0.68997,0.518428 0.19651,0.19469 0.22528,0.349566 0.36775,0.634497 0.0328,0.06557 0.13184,0.168538 0.15714,0.295395 0.0253,0.126857 0.18147,0.478125 0.18147,0.593624 0,-0.03362 -0.1281,-0.13918 -0.12907,-0.13595 l -0.008,-0.01779 c -1.1e-4,3.59e-4 0.11019,0.12951 0.11004,0.129998 -1.7e-4,5.42e-4 -1.4e-4,0.0046 -3.7e-4,0.0053 -2.4e-4,7.56e-4 -0.12927,-0.152517 -0.12957,-0.151613 -3.4e-4,0.001 0.0247,0.05103 0.0243,0.05219 -4.5e-4,0.0013 0.0179,-0.01804 0.0173,-0.01659 -5.8e-4,0.0016 -0.006,-1.2e-4 -0.007,0.0017 -0.01,0.02689 -0.0795,0.04764 -0.0945,0.08604 -0.005,0.01387 -0.015,0.09276 -0.0127,0.14417 0.002,0.04171 0.0257,0.15154 0.14643,0.15154 0.10011,0 0.12751,-0.06968 0.15539,-0.118338 0.0206,-0.03593 0.0835,-0.08943 0.0935,-0.124441 0.03,-0.104569 0.077,-0.231187 0.0862,-0.274655 2.6e-4,-0.0012 -0.0141,-0.01884 -0.0139,-0.01992 2.2e-4,-9.76e-4 -7.6e-4,0.125395 -5.6e-4,0.124561 1.8e-4,-7.51e-4 0.002,-0.111943 0.002,-0.112567 0.001,-0.0056 -0.013,-0.03846 -0.0205,-0.02355 0.0444,-0.08876 0.18602,-0.194541 0.39299,-0.178775 0.10348,0.0079 0.33686,0.26501 0.4257,0.297149 0.0888,0.03214 0.11576,-0.05132 0.14061,-0.02646 0.0698,0.06981 0.0453,0.152511 0.0378,0.313277 -0.0113,0.24115 -0.11851,0.568945 -0.25033,0.884468 -0.13921,0.333188 -0.34562,0.844464 -0.38025,1.052831 -0.01,0.05961 -0.11271,0.112916 -0.0398,0.18585 0.0697,0.06967 0.0647,-0.01697 0.10105,-0.03106 0.028,-0.01084 0.15402,0.02115 0.17257,0.0084 0.0722,-0.04949 0.28414,-0.0991 0.36262,-0.154822 0.0576,-0.04089 0.11666,-0.05218 0.14614,-0.06061 0.003,-8.44e-4 -0.075,-0.07322 -0.0727,-0.07372 0.002,-4.49e-4 0.0237,0.0438 0.0252,0.04358 0.001,-1.79e-4 -0.0486,-0.02844 -0.0478,-0.02851 l -0.0165,-0.03648 c 0.069,0.06822 0.0794,0.07506 0.0798,0.07505 l 0.0528,0.02704 c -0.0587,-0.03399 -0.0805,-0.03897 -0.0846,-0.04232 -5.5e-4,-4.46e-4 -0.0126,-0.04983 -0.0128,-0.05002 0.24063,0.240624 0.65374,0.533494 1.05265,0.770507 0.3989,0.237013 0.80684,0.429374 1.10724,0.488439 z m -1.93856,2.303112 c 0.13428,0.003 0.28413,-0.123068 0.28413,-0.123068 0,0 -0.0757,-0.09979 -0.18544,-0.09833 l -0.0927,-0.09528 c -0.13831,0.023 -0.39046,0.0256 -0.63576,0.0134 -0.2453,-0.0122 -0.48647,-0.04146 -0.75384,-0.08528 -0.3565,-0.05843 -0.6999,-0.158009 -0.92344,-0.269775 0.008,0.0041 0.0281,0.08688 0.0274,0.08622 l 0.0329,-0.06213 c -0.0441,-0.003 -0.0501,-0.0093 -0.0502,-0.0094 -1.7e-4,-1.74e-4 -0.0533,-0.02312 -0.0535,-0.02339 -2.8e-4,-3.08e-4 0.061,0.05023 0.0606,0.0498 -0.004,-0.0044 -0.0911,-0.0971 -0.10008,-0.11327 -0.0179,-0.03234 0.0396,-0.0251 0.0178,-0.09059 -0.029,-0.08731 0.0254,-0.141617 -0.003,-0.264202 -0.0526,-0.229846 -0.11433,-0.512839 -0.1813,-0.788455 -0.067,-0.275617 -0.10341,-0.543857 -0.14341,-0.732246 -0.0202,-0.0949 -0.0922,-0.288144 -0.16758,-0.363573 -0.0175,-0.01747 -0.0261,-0.01323 -0.0527,-0.06786 -0.0266,-0.05464 -0.0116,-0.118389 -0.0447,-0.190275 -0.0652,-0.141523 -0.27987,-0.436433 -0.46035,-0.526672 -0.17871,-0.08936 -0.28973,-0.09467 -0.43912,-0.174061 -0.1494,-0.07939 -0.25905,-0.157092 -0.35521,-0.253243 -0.008,-0.0077 5.6e-4,-0.007 -0.002,-0.02711 -0.002,-0.02007 -0.12085,-0.06453 -0.10874,-0.109268 0.0242,-0.08947 0.22728,-0.119111 0.30216,-0.243461 0.11124,-0.184729 0.23182,-0.50162 0.31224,-0.643001 0.0203,-0.03569 -0.0256,-0.08105 -0.0129,-0.119192 0.0403,-0.120753 0.0972,-0.2258 0.0847,-0.313058 -0.0133,-0.09308 -0.0989,-0.216202 -0.0887,-0.246969 0.0733,-0.21989 0.10622,-0.469735 0.15578,-0.695533 0.0495,-0.225798 0.0857,-0.454405 0.10932,-0.679379 0.024,-0.228545 0.0505,-0.466561 0.1026,-0.671456 0.0521,-0.204896 0.1456,-0.375718 0.23703,-0.558571 0.19085,-0.381704 0.48905,-0.652572 0.78227,-0.939016 0.33926,-0.227079 0.61934,-0.534494 0.97183,-0.755289 0.35449,-0.222725 0.74176,-0.415495 1.13241,-0.586445 0.39148,-0.171314 0.69557,-0.439865 1.09541,-0.573145 0.19981,-0.0666 0.53848,0.0045 0.7937,0.0089 0.25521,0.0044 0.51373,0.02382 0.72567,0.07681 0.33357,0.08339 0.68778,0.167633 0.99411,0.221204 0.31119,0.05442 0.59976,0.147118 0.88475,0.289612 0.29995,0.149976 0.6039,0.365792 0.82021,0.628619 0.21632,0.262826 0.41439,0.692515 0.5402,1.03572 0.12582,0.343205 0.21382,0.696044 0.22098,1.029228 0.007,0.333185 -0.0934,0.564683 -0.17565,0.893528 -0.0983,0.393411 -0.19628,0.919302 -0.3817,1.317527 -0.092,0.197557 -0.30793,0.262695 -0.41094,0.455615 -0.10302,0.19292 -0.0372,0.56903 -0.10891,0.784247 -0.0459,0.137574 -0.0737,0.394199 -0.0879,0.639453 -0.0142,0.245254 0.006,0.493505 0.0528,0.63328 0.0286,0.08561 0.093,0.233461 0.1313,0.32468 0.0175,0.0417 0.007,0.03478 0.0111,0.04851 3e-4,0.001 0.0317,0.0618 0.0319,0.06248 1.7e-4,6.16e-4 -0.13352,-0.03485 -0.13346,-0.03457 6e-5,2.25e-4 0.098,-0.02764 0.098,-0.02768 l 0.0396,0.07674 c -0.021,-0.02965 -0.0362,-0.0301 -0.0362,-0.03039 l 0.0518,0.13602 c -0.0371,-0.137699 -0.0591,-0.205574 -0.03,-0.26082 0.005,-0.0101 -0.0152,-0.01242 -0.005,-0.0233 l -0.0917,-0.116571 c 0.22023,0.05052 0.28359,0.08678 0.29928,0.09749 l 0.0597,0.05746 c -0.0419,-0.02959 -0.0516,-0.03852 -0.0508,-0.03785 9.9e-4,7.46e-4 -0.051,-0.01322 -0.0504,-0.01279 5.8e-4,4.75e-4 0.0603,0.01564 0.0604,0.01576 1.5e-4,1.35e-4 0.002,0.0077 0.002,0.0074 -3e-4,-2.85e-4 -0.02,-0.0033 -0.0207,-0.0041 l 0.006,-0.05411 -0.0967,0.03647 c -0.0179,-0.02799 -0.0964,-0.02373 -0.0964,-0.02373 0,0 -0.0423,0.0019 -0.0375,0.01477 l -0.005,0.112502 c -0.0531,-0.0061 -0.0208,0.09716 0.0395,0.157466 0.0123,0.01228 0.0174,-0.01409 0.0654,-2.8e-4 0.12776,0.03673 0.21581,-0.03539 0.21796,-0.115024 0.001,-0.04356 -0.0123,-0.106219 -0.0194,-0.126101 -0.0397,-0.11134 -0.12649,-0.324809 -0.14671,-0.385406 -0.0106,-0.03194 -0.0426,-0.08165 -0.0517,-0.155798 -0.0136,-0.111217 0.0157,-0.26373 0.0159,-0.404276 1.4e-4,-0.140546 0.0145,-0.250383 0.0281,-0.360661 0.009,-0.07352 0.0805,-0.09566 0.0907,-0.126294 0.068,-0.204038 0.0335,-0.430574 0.0962,-0.650562 0.0628,-0.219989 0.16513,-0.481624 0.25858,-0.682324 0.0927,-0.199132 0.17209,-0.494713 0.26892,-0.68873 0.0968,-0.194018 0.20081,-0.294009 0.25401,-0.506808 0.0902,-0.360802 0.0673,-0.802279 0.0418,-1.195687 -0.0784,-0.427974 -0.10816,-0.760694 -0.22666,-1.11248 -0.13877,-0.383012 -0.31408,-0.731867 -0.54578,-1.027918 -0.23304,-0.297762 -0.52475,-0.573715 -0.87427,-0.748475 -0.31391,-0.156956 -0.65003,-0.26343 -0.97491,-0.311927 -0.32487,-0.0485 -0.60263,-0.02676 -0.90593,-0.102588 -0.23227,-0.05807 -0.53336,-0.10654 -0.82502,-0.11452 -0.29166,-0.008 -0.60542,-0.09458 -0.84861,-0.01352 -0.31966,0.106553 -0.65467,0.202426 -0.98177,0.336324 -0.33514,0.112227 -0.64704,0.301969 -0.96287,0.474851 -0.30599,0.187718 -0.60038,0.416453 -0.88464,0.631442 -0.26313,0.26596 -0.545,0.47772 -0.78201,0.728413 -0.24339,0.257447 -0.41727,0.53042 -0.58492,0.865711 -0.10592,0.211842 -0.27467,0.347703 -0.33355,0.571103 -0.0589,0.2234 -0.0823,0.450685 -0.10645,0.68075 -0.0243,0.231876 -0.0236,0.484715 -0.0363,0.727061 -0.0127,0.242346 -0.0271,0.539533 -0.0931,0.737425 -0.0403,0.120754 -0.045,0.164601 -0.0325,0.25186 0.0133,0.09308 0.035,0.240679 0.0247,0.271445 -0.003,0.01005 -0.0294,0.01826 -0.0658,0.07614 -0.0547,0.08682 -0.12188,0.206186 -0.20315,0.330282 -0.12699,0.1939 -0.27875,0.456274 -0.31,0.672319 -0.0172,0.118825 -0.0317,0.152719 0.066,0.250441 0.24965,0.249646 0.65774,0.492143 0.9876,0.657069 0.0599,0.02997 0.0936,0.09607 0.14216,0.18852 0.0582,0.110644 0.13802,0.316705 0.25237,0.431055 -0.0157,-0.0157 0.0673,0.02801 0.07,0.03389 l -0.0901,-0.04295 c 0.0101,0.0015 -0.0399,-0.06539 -0.0395,-0.06455 4.1e-4,9.3e-4 0.0787,0.09573 0.0792,0.09687 5.3e-4,0.0013 0.004,0.01985 0.004,0.02136 0.006,0.01511 0.003,0.05913 0.0117,0.09233 0.0179,0.06639 0.008,0.09791 0.0286,0.208441 0.0622,0.326416 0.1364,0.790145 0.22026,1.186527 0.0352,0.16647 -0.0213,0.315651 0.0203,0.444699 0.0417,0.129318 0.102,0.281165 0.22937,0.344849 0.33107,0.165534 1.01678,0.299706 1.51674,0.376378 0.49996,0.07667 0.8151,0.105181 1.07949,0.10597 z"
       inkscape:path-effect="#path-effect43;#path-effect41"
       inkscape:original-d="m 136.08147,121.64513 c 0.66876,0.86142 1.13971,4.69651 1.13971,6.91425 0,0.9433 0.0735,2.03682 0.22794,2.96325 0.20751,1.24503 0.37991,2.52685 0.37991,3.79903 0,0.48989 0.0169,3.98053 0.83579,3.5711 0.49514,-0.24758 0.37053,-1.46339 0.45588,-1.9755 0.25499,-1.52992 0.17575,-3.42835 -0.076,-4.93875 -0.11655,-0.6993 0.0635,-1.42986 -0.076,-2.12746 -0.12192,-0.60957 0.0121,-1.28287 -0.076,-1.89952 -0.25022,-1.75154 -0.73737,-5.52415 -1.9755,-6.76228 m -6.53428,2.43138 c 0.81175,1.08568 0.95542,2.50904 1.13971,3.79904 0.12017,0.84119 0.3799,1.56508 0.3799,2.43138 0,0.35833 0.0936,0.71349 0.15196,1.06373 0.18096,1.08576 -0.002,2.26583 0.15196,3.34315 0.0856,0.59947 0,1.293 0,1.89952 0,1.76127 -0.13373,3.90843 0.15196,5.62258 0.0489,0.29351 -0.20514,0.85858 0,1.06372 0.0857,0.0857 0.17084,-0.076 0.22795,-0.076 0.69781,0 0.53541,-0.69092 0.7598,-1.13971 0.78848,-1.57695 0.45589,-4.17064 0.45589,-6.00247 0,-1.94746 -0.10932,-3.80443 -0.37991,-5.69856 -0.13503,-0.94524 -0.52822,-1.87769 -0.68382,-2.81128 -0.15782,-0.94692 -0.44055,-3.0239 -1.06373,-3.64708 m -9.8775,-0.68381 c 0.19777,0.44728 0.20831,3.2527 0,4.71081 -0.20717,1.4502 -0.14883,3.02987 -0.60784,4.40688 -0.20085,0.60256 -0.60785,2.75203 -0.60785,3.34315 0,0.40121 -0.53216,3.1909 -0.30392,3.41914 0.1557,0.1557 0.75981,-0.78611 0.75981,-0.91177 0,-0.90866 0.4915,-1.88052 0.60784,-2.81129 0.0734,-0.5874 0.0986,-1.16549 0.22794,-1.74756 0.40557,-1.82504 0.40026,-3.67284 0.75981,-5.47061 0.19649,-0.98245 -0.066,-2.04564 0.076,-3.03923 0.0647,-0.45304 0.29824,-1.9052 0,-2.20344 m -5.77455,-0.15196 c -1.07699,0.68216 -2.30022,3.82702 -2.81129,6.38238 -0.24679,1.23397 -0.38502,2.52783 -0.68382,3.72306 -0.21589,0.86354 -0.0511,1.85091 -0.22795,2.7353 -0.27505,1.37529 -0.68382,2.63085 -0.68382,4.02698 0,0.5871 -0.44225,1.41246 0.22794,1.74756 0.64944,0.32471 0.75432,-1.72563 0.83579,-2.05148 0.39988,-1.59954 0.55685,-3.23914 0.7598,-4.86277 0.14454,-1.15627 0.45713,-2.28562 0.68383,-3.41913 0.0738,-0.36873 0.26298,-0.71296 0.3799,-1.06373 0.47074,-1.41219 0.71607,-3.84203 1.5956,-5.01473 0.38183,-0.50911 0.69361,-1.07351 1.13971,-1.51961 0.16268,-0.16268 0.56118,-0.37991 0.30392,-0.37991 m -4.02698,15.95596 c 0.20559,0.0706 3.83636,0.87445 4.78679,-0.076 0.30667,-0.30667 -0.22774,-1.67197 0.076,-2.27942 0.27526,-0.55052 1.22128,-1.42128 1.06373,-2.05148 -0.19426,-0.77703 -1.53447,-1.95893 -1.74756,-2.81128 -0.16986,-0.67947 -0.16272,-1.92105 -0.45588,-2.50737 -0.27018,-0.54036 -0.49109,-1.16935 -0.68383,-1.74755 -0.18199,-0.546 -0.21135,-1.10654 -0.45588,-1.5956 m -8.50986,-4.25491 c 0.19584,0.25968 0.0855,0.44326 0.60785,1.13971 1.27203,1.69605 0.9805,1.94651 1.44363,3.79904 0.45365,1.8146 0.98344,3.79042 1.74756,5.31865 0.003,0.006 0.12912,1.45111 0.22794,1.74755 0.0408,0.12246 0.38518,1.81826 0.30392,1.89952 -0.49702,0.49703 -1.43725,-0.0792 -2.05148,0.22794 -0.26652,0.13327 -0.33745,0.52294 -0.45588,0.75981 -0.54694,1.09388 1.56146,1.9755 2.05148,1.9755 m -0.22795,-23.93393 c -1.04359,-0.0212 -9.71851,-0.021 -10.56132,2.50737 -0.28595,0.85785 -0.005,1.77597 -0.15196,2.65932 -0.15639,0.93835 -0.56294,2.5799 -0.3799,3.49512 0.0872,0.43622 -0.0301,0.94342 0.076,1.36765 0.48366,1.93464 0.23686,5.82376 -0.37991,7.67405 -0.13303,0.39911 -0.0212,0.89951 -0.15196,1.29167 -0.48566,1.457 -1.171769,2.31544 -2.65932,2.81129 -0.314503,0.10483 -0.672915,0.047 -0.987751,0.15196 -0.170889,0.057 -0.360976,0.24696 -0.531865,0.30392 -0.361572,0.12053 -0.708888,0.12651 -1.063731,0.30393 -0.51571,0.25785 -0.2511,0.92165 0.07598,1.13971 1.052753,0.70183 3.986162,0.77001 5.242667,0.45588 0.23517,-0.0588 0.40072,0.076 0.60785,0.076 0.48141,0 2.42173,-0.0711 2.73531,-0.22794 0.5335,-0.26675 1.17105,0.40222 1.67157,0.15196 0.42037,-0.21018 0.9543,-0.9299 1.06373,-1.36765 0.1206,-0.48238 -0.15682,-1.50989 0,-1.82354 0.16763,-0.33525 1.02312,-0.16246 0.75981,-1.21569 -0.0768,-0.30698 -0.285,-0.55108 -0.3799,-0.83579 -0.22586,-0.67755 -0.25245,-1.87747 -0.076,-2.58334 0.18179,-0.72712 0.93565,-1.97985 0.68383,-2.73531 -0.39216,-1.17648 -0.46471,-1.86422 -0.15196,-3.11521 0.0699,-0.27955 -0.091,-0.63892 0,-0.91176 0.16136,-0.48409 0.4052,-0.93697 0.53186,-1.44364 0.0671,-0.26853 0.16141,-2.44082 0.22795,-2.50736 0.17667,-0.17668 0.69047,0.10352 0.83579,0.15196 0.52838,0.17613 1.48678,0.41686 2.05147,0.30392 0.40796,-0.0816 1.0615,-0.1676 1.51962,-0.076 0.37065,0.0741 0.66434,0.15196 1.06373,0.15196 0.27923,0 2.49346,-0.13805 2.65933,-0.30392 0.0662,-0.0662 -0.1208,-0.19678 -0.15197,-0.22794 m -0.30393,-13.82849 c 0.39234,1.60393 -0.13748,3.05549 -0.98775,4.3309 -0.28056,0.42083 -0.74922,0.59195 -1.06373,1.06373 -0.52846,0.79269 -0.48446,1.95668 -0.91177,2.81128 -0.1162,0.23241 -0.43647,0.26511 -0.53186,0.45589 -0.0776,0.15521 -0.12945,0.33486 -0.22794,0.53186 -0.0482,0.0965 0.0128,0.46872 0.076,0.53187 0.55672,0.55672 0.62704,1.24449 1.06373,1.89952 0.89885,1.34827 2.58963,1.34442 4.02697,1.82353 0.34246,0.11416 0.7882,0.24534 1.13971,0.30393 0.0962,0.016 1.89677,-0.0746 1.13972,0.30392 m -10.86527,-5.85052 c 0.24465,-0.32136 0.34078,-0.64242 0.45589,-0.98775 0.0988,-0.29631 1.55737,-1.2912 1.82353,-1.82353 0.26358,-0.52715 0.77198,-1.91169 1.13972,-2.27942 0.306,-0.30601 0.7598,-0.81191 0.7598,-1.29168 m 17.47557,8.20592 c -0.27547,0.42035 0.83192,1.4475 0.45588,1.82354 -0.23333,0.23334 -0.30392,0.11432 -0.30392,0.3799 m -10.2574,-16.86772 c 0.0566,-0.0206 -1.01499,0.64226 -1.82354,0.91177 -0.16483,0.055 -0.26433,0.40416 -0.45588,0.53187 -0.12055,0.0804 -0.29434,0.0996 -0.3799,0.22794 -0.2114,0.31709 -0.80109,0.80767 -0.91177,1.13971 -0.11276,0.33827 -0.34493,0.80081 -0.60785,1.06373 -0.19305,0.19305 -0.68925,0.38533 -0.91177,0.60784 -1.22468,1.22469 -3.65188,2.4136 -5.54659,2.88727 -0.0794,0.0199 -0.13293,-0.10446 -0.22794,-0.15196 -0.60002,-0.30001 -1.5459,0.21918 -2.20344,0 -0.10353,-0.0345 -0.20363,-0.20287 -0.30393,-0.22794 -0.4938,-0.12345 -2.53946,-0.206 -2.88726,-0.37991 -0.32018,-0.16008 -0.81323,-0.48259 -1.21569,-0.68382 -0.31706,-0.15853 -0.37393,-0.71883 -0.75981,-0.91177 -0.5225,-0.26125 -1.21123,-0.0492 -1.74756,-0.22794 -0.31056,-0.10353 -0.8402,-0.53628 -1.063728,-0.75981 -0.136927,-0.13693 -0.768815,-3.70504 -0.607845,-4.02698 0.105002,-0.21 0.160372,-0.99616 0.227941,-1.06373 0.134249,-0.13425 0.682442,0.53048 0.759809,0.60785 0.471173,0.47117 0.969073,0.67448 1.595593,0.98775 0.0665,0.0332 0.34999,0.25785 0.45589,0.15196 0.095,-0.095 0.33462,-1.71685 0.60784,-1.44364 0.16891,0.16892 0.16187,3.06786 1.21569,3.41914 0.4546,0.15153 2.75164,-0.15741 3.19119,-0.30393 0.15956,-0.0532 0.37231,0.0532 0.53187,0 1.30121,-0.43373 2.75699,0.20626 3.79903,-0.83578 0.75769,-0.75769 1.75564,-3.005284 2.58335,-3.419137 0.12168,-0.06084 0.18977,-0.227822 0.30392,-0.303922 1.04299,-0.695327 0.81371,-0.617595 1.21569,-1.823537 0.0456,-0.136766 -0.0456,-0.319119 0,-0.455885 0.28901,-0.867013 0.47238,-1.721062 0.75981,-2.583344 0.44539,-1.336186 1.66608,-2.420398 2.27942,-3.647075 0.10438,-0.208762 0.98947,-0.609566 1.21569,-0.83579 0.37973,-0.379727 0.89431,-0.979016 1.51962,-1.291672 0.47594,-0.237966 1.22149,-0.07598 0.7598,-0.07598 1.10438,0.457802 0.87181,1.269722 1.44364,2.127462 0.81053,1.215798 2.39301,1.442872 3.03923,2.735306 1.1965,2.393007 1.44331,5.393652 2.27942,7.901994 0.28434,0.85301 -0.0243,1.92987 0.15196,2.81129 0.16441,0.82202 0.29014,1.67864 0.45589,2.50736 0.063,0.31486 0.31713,0.59793 0.3799,0.91177 0.094,0.46997 0.20939,0.97094 0.30392,1.44363 0.087,0.43491 -0.10739,0.93809 0,1.36766 0.24784,0.99136 0.17639,2.09765 0.37991,3.11521 0.13843,0.69218 -0.0595,1.41704 0.15196,2.05148 0.0847,0.25409 0.0333,0.59842 0.15196,0.83578 M 118.6059,88.365578 c -0.33958,0.19954 -1.77174,-0.556049 -2.3554,-1.139712 -0.18499,-0.184991 -0.62588,0.361868 -0.68382,0.303925 -0.17679,-0.176782 1.08254,-1.956684 0.53186,-2.507364 -0.20728,-0.207288 -0.96384,-0.351742 -1.13971,0 -0.0304,0.06081 -0.0466,0.455882 -0.15196,0.455882 -0.0179,0 0.076,-0.195196 0.076,-0.227941 0,-0.257193 -0.0652,-0.586316 -0.15196,-0.759806 -0.37717,-0.754327 -0.9332,-1.009179 -1.36765,-1.443633 m 3.26715,7.674051 c -0.11765,0.03243 -1.87939,0.01006 -2.65933,-0.379904 -0.2825,-0.141251 -0.46413,-2.211684 -0.60784,-2.3554 -0.15438,-0.154374 -0.19762,-0.554694 -0.45589,-0.683829 -0.34965,-0.174824 -0.68624,-0.30634 -0.91177,-0.531863 -0.26757,-0.26757 0.45358,-1.056801 0.53187,-1.291675 0.0532,-0.159557 -0.0532,-0.372303 0,-0.531862 0.28085,-0.842558 0.1355,-1.866601 0.53186,-2.659327 0.79685,-1.5937 2.58092,-2.278613 4.17894,-2.811286 0.44784,-0.149278 1.07078,-0.112209 1.51962,0 0.65293,0.163235 1.28946,0.150858 1.89951,0.455883 1.28905,0.644525 1.86613,2.488967 1.51962,3.875018 -0.20559,0.82236 -0.70711,1.589474 -0.98775,2.431384 -0.0804,0.241138 -0.0824,0.968652 0,1.215691 0.0507,0.151961 0.26523,0.569148 0.15196,0.455883 -0.0401,-0.04005 -0.0507,-0.101307 -0.076,-0.151961"
       sodipodi:nodetypes="cscsssscsccssccssssssssccsssssccscccsscsscsccssccsssssscccsscsscccscccscscsscsscssscscssccssssssccssssccssccccssccsccccssscccsccsscsssccsssscsssscsssscsssccscsssccsssssscccssssccssssscscc" /></g><g
     inkscape:groupmode="layer"
     id="layer8"
     inkscape:label="Fill"
     transform="translate(-91.142753,-74.470642)"><path
       id="path38"
       style="display:inline;fill:#ffffff;fill-opacity:1;stroke:none;stroke-width:0.405;stroke-linecap:round;stroke-opacity:1"
       d="m 114.0076,121.74421 c 0.18406,-0.30609 -0.12883,-0.62334 0.42981,-1.18198 0.53164,-0.53164 2.78445,0.11056 3.43849,-0.10746 1.05324,-0.35108 6.42855,-0.54658 7.30681,-0.10745 0.48621,0.24311 1.76211,-0.009 2.25651,-0.10745 0.96348,-0.1927 2.03824,0.2149 3.00868,0.2149 1.2568,0 1.71925,-1.34996 1.71925,-2.57887 0,-0.38542 0.20667,-1.69453 0.32236,-2.0416 0.23528,-0.70584 -0.0742,-1.63722 0.10745,-2.36397 0.63763,-2.55051 0.69934,-7.28038 3.11614,-8.48878 0.25788,-0.12895 0.70918,0.12894 0.96707,0 0.76811,-0.38405 1.88324,-0.53164 2.25651,0.2149 0.38368,0.76735 -0.28826,6.09589 -0.53726,7.0919 -0.35831,1.43325 1.01011,5.11471 0.21491,5.90991 -0.093,0.093 0.0625,0.41226 0,0.53727 -0.32263,0.64524 -0.7418,1.27906 -1.28944,1.8267 -0.23982,0.23982 -0.79828,0.36846 -1.07453,0.64471 -2.64133,2.64134 -6.47116,1.95503 -9.99313,1.07453 -0.79605,-0.19901 -1.68388,0.15506 -2.47141,-0.10745 -0.36757,-0.12252 -1.00806,0 -1.39689,0 -1.40939,0 -6.97309,0.70697 -7.62916,0.21491 -0.26418,-0.19814 -0.50145,-0.42981 -0.75217,-0.64472 z"
       sodipodi:nodetypes="cssscssscssssscssssssc" /></g></svg>
